<?xml version="1.0" standalone="no"?>
<!DOCTYPE svg PUBLIC "-//W3C//DTD SVG 20010904//EN"
 "http://www.w3.org/TR/2001/REC-SVG-20010904/DTD/svg10.dtd">
<svg version="1.0" xmlns="http://www.w3.org/2000/svg"
 width="959.000000pt" height="591.000000pt" viewBox="0 0 959.000000 591.000000"
 preserveAspectRatio="xMidYMid meet">

<g transform="translate(0.000000,591.000000) scale(0.100000,-0.100000)"
fill="#000000" stroke="none">
<path d="M501 5869 c-13 -25 -35 -46 -52 -52 -16 -6 -29 -14 -29 -18 0 -4 -28
-10 -63 -13 -51 -6 -73 -3 -115 13 -29 12 -66 21 -82 21 -16 0 -31 4 -35 9 -8
14 -59 38 -95 46 l-30 7 0 -185 0 -185 31 -13 c28 -11 36 -10 73 9 135 70 304
63 384 -15 20 -19 42 -91 42 -138 0 -23 3 -45 7 -49 4 -3 8 -16 10 -29 2 -12
8 -26 13 -31 6 -6 10 -34 10 -63 0 -29 3 -53 8 -53 4 0 6 -17 4 -37 -2 -21 3
-59 11 -86 9 -28 11 -49 6 -53 -6 -3 -7 -15 -3 -27 8 -24 10 -42 12 -124 2
-56 18 -64 37 -20 9 21 17 22 130 25 66 2 207 0 313 -3 l192 -7 81 -142 c44
-77 98 -166 119 -196 22 -30 39 -63 39 -72 1 -10 10 -27 21 -38 11 -11 20 -27
20 -35 0 -8 3 -15 8 -15 4 0 13 -9 19 -20 11 -16 6 -31 -39 -107 -28 -48 -78
-135 -111 -193 -34 -58 -64 -106 -69 -108 -4 -2 -26 -37 -48 -78 l-41 -74
-187 -1 c-103 0 -243 -1 -312 -2 -90 -2 -128 2 -135 10 -7 9 -11 -35 -13 -136
-2 -147 -2 -149 20 -156 22 -7 21 -8 -7 -14 -16 -3 -28 -8 -26 -11 9 -10 -10
-93 -29 -131 -45 -88 -158 -116 -334 -85 -103 19 -119 19 -114 6 2 -5 55 -62
119 -127 96 -98 119 -127 133 -170 10 -31 30 -63 47 -77 25 -22 37 -25 73 -20
31 5 63 0 111 -16 79 -26 94 -24 206 28 119 56 210 87 316 107 88 17 96 17
165 0 40 -9 109 -31 153 -47 122 -46 141 -46 285 2 68 23 129 45 135 49 16 13
76 30 113 33 17 1 32 6 32 10 0 4 3 7 8 6 12 -3 92 13 92 19 0 3 -20 41 -45
84 -25 43 -45 83 -45 90 0 6 23 51 50 100 l51 87 72 4 c40 2 91 2 114 0 42 -3
43 -4 98 -96 l55 -93 -56 -97 c-46 -79 -62 -98 -85 -103 -22 -4 -26 -8 -16
-18 18 -18 58 -37 64 -31 3 3 38 62 78 132 l73 127 208 -2 c115 -1 212 -5 216
-7 5 -3 19 -27 33 -54 13 -26 30 -54 37 -61 8 -8 24 -29 37 -46 12 -18 31 -33
42 -33 25 0 25 2 -16 71 -39 67 -40 59 29 178 l49 84 111 -7 c89 -5 114 -10
124 -24 21 -29 57 -84 82 -130 23 -41 24 -43 6 -72 l-17 -30 23 9 c55 22 169
41 245 41 45 0 153 10 240 22 170 24 299 26 335 7 20 -11 72 -25 117 -32 8 -1
30 24 49 56 l34 57 77 0 77 0 37 -66 38 -65 -26 -45 c-37 -63 -23 -68 15 -5
l32 51 73 0 74 0 36 -64 c26 -46 34 -71 30 -89 -7 -28 -2 -31 73 -42 23 -4 42
-10 42 -13 0 -4 14 -13 31 -21 18 -8 37 -27 44 -45 7 -17 22 -42 33 -56 10
-14 54 -82 96 -152 76 -125 102 -149 122 -117 5 8 32 10 93 4 165 -14 344 -14
379 1 41 17 516 37 580 25 64 -12 67 -19 53 -100 -20 -110 -45 -183 -66 -195
-11 -6 -55 -44 -97 -83 -43 -40 -82 -73 -87 -73 -11 0 -51 -62 -51 -78 0 -6
15 -27 34 -47 49 -51 72 -106 132 -315 56 -196 153 -490 199 -603 15 -37 25
-70 23 -73 -3 -2 -18 0 -33 6 -36 14 -40 8 -21 -29 19 -36 21 -75 4 -89 -30
-24 -145 -32 -483 -30 -192 1 -429 -4 -525 -10 -244 -15 -1866 -27 -1874 -14
-6 10 50 32 82 32 19 0 257 59 301 75 21 7 84 16 141 20 97 7 102 9 113 34 21
47 50 56 45 14 l-3 -28 174 -3 c110 -1 178 1 185 8 7 7 -17 10 -74 11 -47 0
-105 4 -130 7 l-44 7 29 20 c17 11 44 21 60 23 47 5 83 22 100 48 12 18 25 24
53 24 20 0 42 4 48 8 17 11 26 49 14 57 -7 4 -14 -2 -17 -14 -3 -14 -13 -21
-27 -20 -16 1 -17 2 -4 6 9 2 20 13 23 24 4 10 15 24 26 29 20 11 27 50 9 50
-15 0 -12 19 5 37 14 14 14 17 0 32 -8 9 -33 40 -55 68 -22 29 -51 60 -65 69
-14 9 -25 26 -25 38 0 12 -18 38 -40 59 -22 20 -40 45 -40 54 0 10 -18 34 -40
54 -22 20 -40 35 -40 32 0 -2 -7 3 -16 11 -8 9 -21 16 -29 16 -11 0 -26 33
-29 63 -1 4 -8 12 -16 17 -8 5 -11 10 -6 10 5 0 -30 38 -78 85 -47 47 -91 85
-96 85 -5 0 -13 8 -19 18 -5 9 -13 15 -16 14 -10 -6 -97 80 -117 113 -9 16
-29 34 -45 39 -41 13 -56 27 -43 40 18 18 11 23 -42 24 -28 0 -54 6 -57 11 -5
7 -16 5 -34 -4 -15 -8 -36 -12 -47 -10 -11 2 -22 0 -24 -4 -3 -4 -40 -6 -83
-4 -43 2 -204 5 -358 7 -236 3 -295 7 -374 25 -52 11 -99 17 -104 14 -5 -3 -7
0 -5 8 6 18 92 18 248 1 96 -11 139 -11 255 1 132 13 346 14 533 2 84 -5 152
-29 169 -60 5 -8 92 -99 193 -202 198 -201 288 -303 347 -397 21 -32 68 -94
105 -137 37 -43 75 -93 84 -111 10 -18 19 -27 21 -20 6 16 -29 89 -73 153 -36
52 -55 109 -36 109 6 0 16 -9 22 -20 6 -11 21 -20 34 -20 23 0 39 -20 40 -49
1 -21 26 -26 26 -5 0 33 41 104 60 104 27 0 44 -28 43 -69 l-2 -36 67 1 c99 3
94 1 83 23 -9 16 -6 22 16 37 15 9 43 18 62 19 26 0 36 6 43 25 17 47 67 55
88 15 15 -29 23 -31 40 -10 7 8 27 15 45 15 20 0 43 9 61 25 16 14 44 31 62
37 19 7 32 19 32 29 0 10 4 20 9 23 5 4 20 27 33 54 33 69 30 149 -9 223 -18
32 -33 80 -38 114 -7 60 -30 114 -62 145 -18 18 -48 57 -67 89 -40 65 -53 82
-72 91 -34 19 -96 103 -150 207 -62 116 -79 129 -194 144 -46 5 -91 14 -101
20 -10 5 -36 9 -58 9 -31 0 -43 5 -51 21 -7 11 -14 18 -17 15 -3 -3 5 -23 19
-43 46 -69 68 -110 68 -126 0 -9 8 -23 17 -32 9 -10 24 -31 34 -49 16 -30 16
-32 -17 -97 -31 -63 -32 -67 -16 -85 27 -29 53 -88 41 -93 -16 -5 -39 22 -53
63 l-13 38 -30 -49 c-17 -26 -47 -76 -67 -109 -20 -34 -43 -65 -52 -68 -12 -4
-3 -21 42 -77 31 -40 75 -88 97 -108 47 -42 72 -95 82 -168 4 -29 13 -58 22
-64 8 -7 21 -25 29 -41 12 -22 12 -28 1 -28 -12 0 -77 76 -77 91 0 12 -126 22
-195 14 -75 -8 -80 -18 -42 -75 27 -39 62 -138 53 -147 -3 -4 -6 1 -6 10 0 8
-3 17 -7 19 -8 3 -38 63 -62 121 -6 15 -19 30 -28 34 -29 10 -64 49 -58 65 3
8 -9 26 -30 43 -19 17 -35 34 -35 39 0 11 -93 102 -138 136 -43 32 -65 55
-105 107 -18 23 -40 44 -50 46 -9 3 -24 21 -32 41 -9 20 -19 36 -24 36 -5 0
-23 13 -40 29 -19 18 -31 24 -31 15 0 -8 4 -14 9 -14 5 0 12 -7 15 -16 5 -12
1 -11 -19 4 -13 10 -46 25 -72 32 -26 7 -54 18 -62 24 -12 9 -13 8 -6 -4 8
-13 7 -13 -9 0 -10 8 -22 23 -27 35 -7 16 -8 14 -4 -9 6 -26 4 -28 -9 -17 -9
8 -16 11 -16 8 0 -15 -60 17 -61 31 0 15 -1 14 -8 -1 -6 -17 -8 -17 -35 4 -27
21 -28 21 -18 2 10 -18 9 -20 -13 -15 -14 2 -25 8 -25 12 0 5 -8 7 -17 5 -10
-1 -24 2 -31 8 -7 5 -15 7 -18 5 -3 -3 -46 7 -97 22 -79 23 -106 26 -187 23
l-95 -4 -20 32 c-16 25 -34 36 -95 55 -41 13 -76 24 -77 24 -1 0 -19 -30 -40
-66 -37 -65 -39 -66 -73 -60 -19 3 -114 6 -211 6 l-175 0 -24 42 c-33 61 -41
70 -54 59 -12 -11 -180 -62 -211 -64 -11 -1 -26 -8 -33 -15 -7 -6 -22 -12 -32
-12 -10 0 -22 -4 -25 -10 -3 -5 -19 -10 -34 -10 -15 0 -45 -9 -67 -19 -22 -11
-71 -27 -109 -36 -39 -10 -84 -23 -100 -30 -25 -10 -131 -37 -157 -39 -3 -1
-10 -4 -14 -9 -4 -4 -20 -7 -35 -7 -15 0 -40 -5 -56 -11 -15 -6 -39 -13 -53
-14 -65 -6 -110 -18 -121 -31 -14 -17 -89 -19 -89 -3 0 8 -4 8 -14 0 -12 -10
-17 -8 -25 8 -17 32 -13 42 14 35 19 -5 25 -2 25 10 0 15 9 20 27 14 5 -2 7
-6 6 -10 -2 -5 2 -8 7 -8 6 0 10 9 10 19 0 26 30 35 45 14 13 -17 14 -17 34 1
12 11 27 16 37 12 10 -4 22 1 31 11 8 10 16 13 19 8 7 -16 136 6 130 22 -3 7
-1 13 3 13 5 0 11 -6 14 -12 3 -10 7 -10 19 -1 8 7 27 14 41 15 15 1 29 8 31
15 3 7 10 13 16 13 6 0 9 -4 6 -9 -7 -11 93 26 111 41 7 6 22 8 33 5 15 -4 20
0 21 16 0 21 1 21 9 2 8 -18 9 -18 10 5 1 14 4 19 7 13 3 -10 8 -10 19 1 20
21 18 26 -11 24 -14 -1 -25 -5 -25 -8 0 -10 -44 -6 -52 5 -5 6 -8 5 -8 -2 0
-7 -8 -13 -17 -13 -15 0 -16 2 -3 10 14 8 1 9 -53 1 -5 0 -5 -6 -2 -11 5 -8
12 -7 23 2 15 12 16 11 3 -5 -16 -20 -37 -22 -44 -4 -3 9 -7 9 -17 0 -10 -9
-19 -9 -33 -2 -13 7 -17 7 -13 1 5 -9 -30 -23 -69 -28 -5 0 -18 -4 -27 -8 -15
-7 -41 -13 -60 -15 -5 -1 -8 -8 -8 -16 0 -8 -4 -15 -10 -15 -5 0 -10 5 -10 11
0 7 -7 8 -17 4 -10 -4 -26 -7 -35 -7 -10 0 -18 -6 -18 -13 0 -11 -6 -12 -24
-5 -28 10 -37 5 -29 -18 5 -14 3 -15 -8 -5 -19 18 -46 16 -61 -4 -15 -21 -38
-28 -38 -12 0 5 -4 8 -10 4 -5 -3 -7 -12 -3 -20 3 -8 0 -15 -6 -15 -6 0 -11 4
-11 9 0 5 -13 9 -30 9 -16 -1 -30 -5 -30 -10 0 -5 -5 -6 -10 -3 -6 4 -17 1
-25 -5 -9 -7 -15 -8 -15 -2 0 12 -53 13 -60 1 -9 -14 -65 6 -68 24 -2 9 1 17
7 17 6 0 11 8 11 18 1 16 1 16 11 -1 10 -18 12 -18 30 -1 10 9 19 20 19 24 0
15 -66 -4 -83 -24 -15 -18 -16 -19 -10 -2 5 17 3 18 -23 12 -37 -10 -42 -15
-24 -26 13 -8 12 -10 -2 -10 -9 0 -21 -6 -25 -14 -4 -8 -12 -15 -18 -15 -5 0
-11 -10 -13 -21 -2 -14 -9 -20 -18 -16 -8 3 -14 0 -14 -6 0 -7 -5 -6 -15 2
-21 18 -19 32 5 25 11 -3 20 -3 20 2 0 5 14 17 30 27 17 9 28 22 24 27 -4 6
-14 3 -27 -8 -11 -10 -17 -12 -12 -4 6 11 3 13 -18 7 -14 -3 -36 -10 -49 -15
-13 -5 -27 -9 -33 -10 -5 -1 -20 -9 -33 -17 -12 -8 -28 -14 -35 -13 -41 5 -57
-2 -57 -25 0 -13 -8 -30 -17 -37 -16 -13 -17 -12 -4 4 8 10 9 17 3 17 -6 0 -9
7 -6 15 4 8 1 15 -4 15 -15 0 -53 -56 -45 -64 4 -4 0 -4 -10 0 -9 3 -14 11
-11 16 4 6 -1 8 -14 4 -15 -5 -22 -1 -28 16 -9 25 -6 60 5 68 4 3 15 21 25 40
9 19 24 46 32 60 20 36 18 60 -6 60 -22 0 -125 -67 -150 -97 -66 -80 -98 -122
-109 -145 -7 -14 -35 -40 -62 -58 -27 -17 -49 -35 -49 -39 0 -4 -16 -7 -35 -7
-21 1 -34 5 -31 12 2 6 -5 10 -17 10 -29 -1 -43 58 -29 127 18 93 9 144 -39
224 -33 55 -49 72 -66 73 -13 0 -23 -4 -23 -9 0 -5 -9 -13 -20 -16 -20 -6 -20
-15 -20 -971 0 -636 3 -964 10 -964 6 0 10 5 10 10 0 6 10 10 23 9 14 0 17 -2
7 -6 -8 -3 -23 -12 -32 -21 -16 -14 -18 -43 -18 -329 l0 -313 1830 0 c1719 0
1830 1 1839 17 6 12 20 17 40 15 33 -2 65 22 81 61 7 17 9 18 9 5 1 -10 8 -18
16 -18 8 0 12 6 9 14 -3 8 0 17 6 21 7 4 14 -2 17 -14 7 -28 23 -27 24 2 2 29
5 66 7 95 1 12 8 22 15 22 18 0 59 -48 45 -52 -5 -2 -8 -15 -6 -28 4 -24 5
-24 13 -5 13 31 37 44 77 45 29 0 41 -6 54 -25 27 -42 60 -43 94 -4 16 19 30
42 30 51 0 12 11 19 38 23 20 3 64 11 97 17 33 6 193 13 355 15 162 2 318 5
345 6 28 1 97 1 155 0 58 -1 160 -1 227 0 67 1 267 -1 445 -6 573 -13 613 -13
640 2 27 14 48 66 48 120 0 20 5 31 14 31 7 0 57 -38 110 -84 53 -47 105 -87
115 -91 10 -3 23 -15 29 -28 21 -41 37 -61 67 -86 17 -14 53 -47 81 -73 l51
-48 266 0 266 0 11 39 c6 22 14 41 18 44 4 2 1 2 -6 1 -10 -3 -11 5 -6 31 4
21 2 41 -5 48 -6 8 -13 31 -16 52 -3 24 -14 48 -30 62 -14 13 -25 30 -25 38 0
8 -15 22 -32 31 -40 20 -48 31 -48 67 0 15 -4 27 -9 27 -5 0 -12 9 -16 19 -3
11 -16 35 -29 54 -13 18 -26 51 -30 72 -6 30 -10 35 -18 24 -7 -10 -8 -6 -4
16 2 17 0 46 -7 65 -14 44 -14 43 -26 36 -7 -5 -7 -15 0 -33 5 -14 7 -28 4
-32 -10 -9 -25 22 -26 54 l-1 30 -9 -33 -10 -34 -25 29 c-13 15 -24 32 -24 37
0 5 8 -1 19 -12 10 -12 21 -22 24 -22 7 0 3 88 -5 95 -4 4 -12 4 -17 0 -8 -4
-6 -13 4 -28 21 -30 19 -44 -3 -24 -10 10 -22 14 -25 10 -6 -6 -8 3 -11 62 -1
13 -7 19 -18 17 -9 -1 -19 2 -23 8 -3 5 0 7 9 4 11 -4 13 0 9 15 -3 11 -11 22
-19 25 -8 3 -14 12 -14 20 0 9 -7 12 -20 9 -22 -6 -28 12 -7 20 6 3 3 6 -8 7
-30 1 -65 35 -65 62 0 14 38 87 84 164 152 254 291 477 372 599 45 66 98 149
120 184 21 35 57 85 80 110 40 45 74 100 74 121 0 20 110 177 169 240 46 49
63 61 73 52 14 -11 76 -18 233 -27 50 -3 113 -8 140 -11 150 -16 232 -22 344
-23 69 -1 127 -4 131 -6 4 -2 38 -7 76 -10 38 -3 83 -7 99 -9 17 -2 64 -7 105
-10 258 -21 222 -37 -110 -51 -74 -3 -162 -8 -195 -10 -33 -2 -148 -7 -255
-10 -280 -9 -477 -37 -533 -77 -17 -12 -27 -17 -23 -10 4 7 4 12 -1 12 -12 0
-39 -20 -28 -20 6 0 1 -7 -9 -15 -24 -18 -8 -42 21 -30 23 9 202 7 373 -5 74
-5 209 -12 300 -15 159 -5 318 -20 350 -32 8 -4 17 -7 20 -8 35 -12 40 -20 40
-62 0 -49 -26 -82 -66 -83 -11 0 -25 -5 -31 -11 -6 -6 -40 -11 -76 -10 -45 0
-69 -4 -77 -14 -7 -8 -16 -12 -22 -9 -5 3 -15 1 -22 -5 -7 -6 -34 -12 -59 -12
-45 -2 -47 -3 -53 -38 -9 -46 -10 -44 23 -48 34 -5 83 -25 83 -35 0 -4 9 -5
20 -3 13 3 26 -5 37 -21 9 -14 21 -23 28 -20 6 2 20 -11 30 -30 17 -31 27 -38
48 -35 4 0 7 -10 7 -24 0 -14 9 -30 20 -37 11 -7 20 -20 20 -28 0 -8 7 -35 15
-59 9 -24 13 -51 10 -60 -6 -20 -85 -44 -101 -30 -15 12 -49 -22 -65 -65 -12
-34 -14 -35 -53 -30 -35 4 -43 1 -59 -21 -10 -14 -13 -25 -7 -25 5 0 10 -14
10 -31 0 -29 -2 -31 -30 -27 -33 5 -44 -4 -54 -44 -4 -17 -1 -28 7 -31 6 -3
-3 -3 -20 0 -26 4 -33 2 -33 -11 0 -9 -6 -16 -12 -16 -7 0 -2 -7 10 -16 12 -8
22 -21 22 -29 0 -7 6 -15 13 -18 9 -3 7 -9 -5 -24 -14 -15 -15 -22 -6 -31 7
-7 8 -12 2 -12 -13 0 -36 16 -35 24 3 18 -1 21 -24 22 -19 2 -25 -3 -25 -18 0
-16 -5 -19 -24 -14 -25 6 -51 -14 -28 -22 9 -3 9 -9 2 -23 -13 -24 8 -26 50
-4 27 14 28 14 38 -14 9 -26 8 -28 -10 -23 -16 4 -19 2 -13 -8 6 -10 3 -12
-13 -8 -15 4 -19 2 -15 -9 5 -12 1 -14 -15 -8 -16 5 -22 2 -22 -9 0 -26 -19
-18 -40 17 -11 17 -20 27 -20 21 0 -37 78 -84 127 -75 7 1 17 -9 24 -21 11
-20 10 -21 -3 -10 -9 7 -23 10 -32 6 -9 -3 -23 0 -32 7 -8 7 -26 14 -40 15
-21 2 -22 1 -9 -12 17 -18 20 -34 5 -34 -5 0 -10 7 -10 15 0 8 -4 15 -9 15 -5
0 -18 3 -28 6 -17 5 -17 5 0 -6 9 -6 17 -18 17 -25 0 -8 5 -15 10 -15 6 0 15
-11 20 -24 5 -13 18 -27 29 -31 12 -3 22 -12 22 -18 5 -54 10 -72 20 -81 9 -8
10 -5 6 11 -3 13 -1 26 4 29 6 3 5 11 -2 20 -6 8 -8 14 -4 14 5 0 0 9 -10 20
-10 11 -21 17 -25 15 -12 -7 -34 25 -24 34 10 9 56 -12 54 -25 -1 -5 7 -11 17
-13 45 -9 54 -35 23 -71 -23 -27 -25 -36 -8 -46 8 -5 9 -2 5 9 -3 10 -2 17 3
17 6 0 10 -4 10 -9 0 -18 53 -72 66 -67 18 7 22 -13 11 -51 -5 -17 -6 -40 -2
-50 5 -10 7 -21 7 -25 -1 -5 5 -8 13 -8 8 0 14 3 14 8 -4 26 5 43 31 57 37 19
37 19 43 -5 3 -11 12 -20 21 -20 20 0 20 -11 1 -36 -13 -16 -16 -17 -25 -4 -5
8 -8 20 -5 27 2 7 0 15 -5 18 -6 4 -10 0 -10 -8 0 -8 -9 -22 -20 -32 -26 -23
-25 -36 2 -65 15 -16 24 -43 29 -84 4 -33 12 -62 18 -64 6 -2 8 -14 5 -29 -4
-16 -2 -29 7 -35 10 -7 0 -8 -32 -4 -72 8 -89 0 -89 -44 0 -30 4 -39 23 -45
12 -4 25 -7 28 -6 4 0 25 -18 48 -39 l42 -40 394 0 395 0 0 2613 0 2612 -34
-55 c-51 -81 -212 -332 -370 -573 -76 -117 -168 -257 -204 -312 -207 -317
-860 -1290 -973 -1451 -73 -104 -196 -279 -273 -389 -168 -241 -666 -987 -690
-1033 -10 -18 -22 -32 -29 -29 -6 2 -31 41 -56 88 -39 75 -142 231 -352 534
-38 55 -80 122 -94 149 -23 46 -24 51 -8 68 9 10 22 18 30 18 7 0 13 11 13 27
0 37 36 98 236 400 201 305 198 299 183 309 -6 4 -156 11 -333 16 -176 5 -325
14 -331 19 -5 5 -203 9 -471 9 -298 0 -465 4 -469 10 -3 6 -16 10 -28 11 -13
0 -16 3 -9 6 18 7 -220 243 -245 243 -10 0 -24 14 -33 33 -9 20 -24 33 -37 35
-13 2 -23 8 -23 13 0 5 -10 9 -22 9 -22 -1 -21 -2 10 -30 17 -16 32 -33 32
-37 0 -4 -17 10 -38 30 -22 21 -49 39 -60 40 -25 2 -29 12 -7 21 8 3 21 -2 30
-10 8 -9 15 -11 15 -5 0 6 7 11 16 11 14 0 14 3 4 15 -7 8 -19 15 -26 15 -8 0
-14 8 -14 18 0 14 -2 15 -10 2 -9 -13 -10 -13 -11 0 -1 8 -2 20 -3 25 -2 18
-130 138 -134 126 -2 -6 -8 -9 -13 -5 -15 9 -10 -8 9 -30 l17 -21 -25 20 c-14
11 -28 24 -31 29 -4 4 -10 3 -13 -3 -11 -17 -27 -13 -24 6 3 15 -4 17 -37 14
-22 -1 -49 -11 -61 -22 -28 -26 -124 -28 -124 -1 0 11 3 13 8 5 5 -8 13 -8 31
2 23 12 22 12 -22 13 -38 1 -47 -2 -47 -16 0 -15 2 -15 10 -2 6 9 10 10 10 3
0 -16 -17 -26 -24 -14 -3 5 -35 6 -71 3 -45 -3 -65 -1 -65 7 0 6 10 11 23 12
21 1 21 1 -3 8 -29 8 -70 2 -70 -10 0 -5 -5 -9 -11 -9 -5 0 -7 5 -4 10 4 6
-28 10 -90 10 -62 0 -94 -4 -90 -10 3 -5 1 -10 -4 -10 -6 0 -11 6 -11 13 0 8
-3 8 -8 1 -9 -13 -80 -15 -88 -2 -4 6 -10 5 -15 -3 -6 -10 -9 -11 -9 -1 0 9
-25 12 -92 11 -51 -1 -85 -3 -75 -6 9 -2 17 -9 17 -15 0 -7 -22 -8 -62 -4 -89
9 -88 8 -88 19 0 5 -8 3 -17 -4 -11 -10 -14 -10 -9 -1 5 9 -5 12 -41 11 -26
-1 -40 -3 -30 -6 32 -8 17 -23 -23 -21 -23 1 -50 9 -62 20 -21 18 -57 23 -130
19 -20 -2 -45 2 -55 7 -10 5 -48 12 -85 16 -37 3 -98 15 -135 27 -45 15 -68
18 -71 11 -3 -11 -33 -5 -42 10 -3 4 -16 9 -28 11 -12 2 -24 6 -28 9 -3 4 -11
5 -17 2 -7 -2 -21 9 -32 25 -11 17 -27 32 -36 34 -9 3 -23 17 -30 33 -10 20
-23 30 -42 32 -28 3 -39 22 -12 22 18 0 19 14 2 32 -15 16 -35 89 -50 183 -1
6 -29 12 -62 15 -47 4 -61 9 -63 23 -3 15 5 17 62 17 63 0 66 1 66 24 0 23 -4
25 -52 29 l-53 3 50 2 51 2 19 78 c23 93 57 165 91 197 18 17 24 30 19 44 -4
13 0 27 9 37 23 22 9 37 -28 31 -17 -2 -40 -1 -51 4 -14 5 -2 8 40 10 l60 2
-60 7 c-46 5 -52 7 -25 10 l35 3 -35 7 c-34 6 -32 9 10 23 8 3 0 6 -19 6 -33
1 -34 1 -16 21 10 11 15 20 10 20 -4 0 -2 6 4 13 6 8 8 17 4 20 -3 4 4 7 17 7
21 0 22 1 7 13 -14 10 -15 18 -6 50 5 21 17 41 25 44 25 9 4 23 -39 24 -23 1
-33 4 -22 6 11 3 24 11 28 19 4 8 17 14 28 14 11 0 17 -4 14 -10 -3 -5 -1 -10
4 -10 6 0 11 4 11 9 0 5 3 16 6 25 5 13 -3 16 -48 16 -49 0 -54 2 -53 23 2 41
27 67 65 68 30 0 32 2 14 9 -12 5 -25 13 -28 18 -13 21 176 270 255 337 l24
20 -77 3 c-75 3 -79 4 -93 32 -9 17 -19 30 -23 30 -7 0 -51 81 -71 133 -6 15
-15 27 -21 27 -5 0 -10 9 -10 20 0 11 -4 20 -10 20 -5 0 -26 30 -46 67 l-38
67 27 48 c15 26 27 50 27 53 0 3 -485 5 -1077 5 l-1078 0 -24 -41z m2152 -334
c15 -32 15 -36 -1 -65 -14 -25 -23 -30 -57 -30 -34 0 -42 5 -58 32 -17 30 -17
33 0 65 15 29 22 33 58 33 37 0 43 -3 58 -35z m-347 -32 c16 -32 34 -64 41
-71 7 -7 13 -20 13 -28 0 -8 5 -14 10 -14 20 0 9 -32 -41 -120 l-50 -90 -114
0 c-104 0 -115 2 -125 20 -6 11 -9 20 -6 20 3 0 -14 33 -38 73 l-44 73 52 92
51 91 80 3 c44 2 94 5 112 6 29 2 34 -2 59 -55z m207 -58 c16 -33 16 -37 0
-70 -15 -31 -21 -35 -54 -35 -32 0 -40 5 -58 35 l-20 35 20 35 c18 30 26 35
58 35 33 0 39 -4 54 -35z m-747 -82 c4 -16 33 -71 64 -123 100 -167 99 -132 7
-294 -44 -78 -81 -142 -82 -144 -2 -2 -79 0 -172 4 l-170 7 -54 95 c-30 52
-67 118 -83 145 l-29 51 24 45 c13 25 34 56 47 70 12 13 22 32 22 43 0 10 7
21 15 24 8 4 15 13 15 21 0 9 9 31 21 49 l21 34 174 0 174 0 6 -27z m802 -119
c18 -31 32 -60 32 -64 0 -5 -15 -33 -32 -64 l-33 -56 -72 0 -72 0 -36 60 c-40
65 -40 62 13 143 l25 37 71 0 72 0 32 -56z m-1969 -17 c8 -10 7 -14 -4 -14 -8
0 -15 6 -15 14 0 7 2 13 4 13 2 0 9 -6 15 -13z m1720 -154 l33 -58 -33 -63
-33 -63 -74 3 -74 3 -33 60 -33 60 35 58 34 57 72 0 73 0 33 -57z m278 -89
c-3 -3 -12 -4 -19 -1 -8 3 -5 6 6 6 11 1 17 -2 13 -5z m-482 -164 l140 -1 44
-77 c25 -42 55 -89 67 -104 12 -15 38 -60 58 -101 l37 -74 -49 -84 c-27 -46
-58 -100 -70 -119 -11 -19 -34 -60 -50 -90 -27 -49 -34 -55 -61 -54 -17 0
-109 1 -205 2 l-175 2 -32 58 c-18 31 -47 78 -66 103 -18 26 -44 72 -58 102
-13 30 -29 58 -35 62 -20 12 1 67 70 185 37 63 78 135 91 158 l24 44 65 -6
c36 -3 128 -6 205 -6z m574 -381 c-7 -4 -17 -5 -22 -2 -5 3 -3 9 4 14 7 4 17
5 22 2 5 -3 3 -9 -4 -14z m-72 -380 c2 -19 -2 -20 -43 -16 -47 4 -73 17 -35
17 12 0 19 4 16 10 -4 6 8 10 27 10 27 0 34 -4 35 -21z m-701 -69 l140 0 43
-77 c24 -43 52 -87 62 -98 10 -11 36 -56 59 -99 l40 -79 -57 -101 c-32 -56
-60 -105 -63 -111 -21 -42 -74 -126 -82 -131 -5 -3 -99 -3 -209 1 l-199 7 -42
72 c-23 39 -47 76 -54 81 -7 6 -27 39 -45 75 -18 36 -39 73 -47 82 -20 23 -12
41 91 226 l92 164 65 -6 c36 -3 128 -6 206 -6z m941 -314 c-4 -11 3 -16 26
-19 27 -3 25 -4 -10 -5 -24 -1 -43 -6 -43 -11 0 -4 31 -7 69 -5 64 3 72 1 100
-24 37 -31 39 -44 9 -42 -50 4 -60 -4 -13 -10 l50 -7 -47 -1 c-54 -2 -63 -24
-13 -32 28 -5 25 -6 -27 -21 -49 -14 -55 -14 -50 -1 4 10 1 13 -7 8 -13 -8
-48 31 -43 47 2 6 -18 9 -68 9 -39 0 -50 -2 -50 -11 0 -4 11 -6 24 -4 13 3 27
0 30 -6 5 -7 -4 -11 -24 -11 -18 0 -33 6 -36 15 -4 8 -16 15 -28 15 -16 0 -21
6 -21 25 0 15 4 21 10 15 13 -14 138 -13 130 0 -4 6 -22 9 -40 8 -19 -2 -34 2
-34 7 -1 6 9 10 22 10 16 1 21 6 19 19 -6 32 6 46 39 46 23 0 30 -4 26 -14z
m110 -22 c-3 -3 -12 -4 -19 -1 -8 3 -5 6 6 6 11 1 17 -2 13 -5z m1713 -63 c0
-6 -4 -12 -8 -15 -5 -3 -9 1 -9 9 0 8 4 15 9 15 4 0 8 -4 8 -9z m20 -52 c0 -6
-4 -7 -10 -4 -5 3 -10 1 -10 -6 0 -7 -2 -10 -5 -7 -9 8 6 38 16 32 5 -3 9 -10
9 -15z m-1177 4 c-7 -2 -19 -2 -25 0 -7 3 -2 5 12 5 14 0 19 -2 13 -5z m80 0
c-13 -2 -33 -2 -45 0 -13 2 -3 4 22 4 25 0 35 -2 23 -4z m190 0 c-13 -2 -33
-2 -45 0 -13 2 -3 4 22 4 25 0 35 -2 23 -4z m60 0 c-7 -2 -19 -2 -25 0 -7 3
-2 5 12 5 14 0 19 -2 13 -5z m114 0 c-20 -2 -52 -2 -70 0 -17 2 0 4 38 4 39 0
53 -2 32 -4z m76 0 c-7 -2 -19 -2 -25 0 -7 3 -2 5 12 5 14 0 19 -2 13 -5z m50
0 c-7 -2 -19 -2 -25 0 -7 3 -2 5 12 5 14 0 19 -2 13 -5z m80 0 c-13 -2 -33 -2
-45 0 -13 2 -3 4 22 4 25 0 35 -2 23 -4z m60 0 c-7 -2 -19 -2 -25 0 -7 3 -2 5
12 5 14 0 19 -2 13 -5z m80 0 c-13 -2 -33 -2 -45 0 -13 2 -3 4 22 4 25 0 35
-2 23 -4z m215 0 c-15 -2 -42 -2 -60 0 -18 2 -6 4 27 4 33 0 48 -2 33 -4z
m112 -45 c0 -12 -6 -9 -26 13 -19 22 -19 22 4 8 12 -8 22 -17 22 -21z m181 15
c13 -16 12 -17 -3 -4 -17 13 -22 21 -14 21 2 0 10 -8 17 -17z m-2038 0 c-7 -2
-21 -2 -30 0 -10 3 -4 5 12 5 17 0 24 -2 18 -5z m264 1 c-3 -3 -12 -4 -19 -1
-8 3 -5 6 6 6 11 1 17 -2 13 -5z m1624 -51 c13 -16 12 -17 -3 -4 -17 13 -22
21 -14 21 2 0 10 -8 17 -17z m110 0 c13 -16 12 -17 -3 -4 -10 7 -18 15 -18 17
0 8 8 3 21 -13z m-1821 -2 c0 -5 -7 -12 -16 -15 -8 -3 -12 -2 -9 3 3 5 -3 12
-12 14 -11 3 -8 5 10 6 15 0 27 -3 27 -8z m1765 -51 c10 -11 16 -20 13 -20 -3
0 -13 9 -23 20 -10 11 -16 20 -13 20 3 0 13 -9 23 -20z m-1688 -16 c-3 -3 -12
-4 -19 -1 -8 3 -5 6 6 6 11 1 17 -2 13 -5z m1912 -95 c52 -55 92 -99 89 -99
-6 0 -198 190 -198 196 0 13 26 -10 109 -97z m-136 26 c20 -19 33 -35 29 -35
-9 0 -72 57 -72 64 0 11 7 6 43 -29z m221 -31 c3 -8 2 -12 -4 -9 -6 3 -10 10
-10 16 0 14 7 11 14 -7z m-138 -79 c12 -36 11 -42 -7 -72 -18 -28 -26 -33 -59
-33 -31 0 -43 6 -59 29 -25 35 -26 41 -4 80 14 24 26 31 58 34 57 5 56 5 71
-38z m-3815 -877 c8 -15 8 -19 0 -14 -6 4 -11 1 -11 -6 0 -8 10 -14 21 -15 27
-2 33 -8 24 -23 -5 -9 -10 -9 -18 -1 -15 15 -44 14 -51 -1 -5 -10 -7 -10 -12
0 -4 8 -10 9 -17 4 -19 -14 -49 -23 -42 -12 3 6 13 10 21 10 8 0 17 7 20 15 4
8 14 15 23 15 14 0 17 7 13 31 -5 35 10 33 29 -3z m-41 3 c0 -4 -3 -11 -7 -14
-8 -9 -34 13 -28 24 6 9 35 1 35 -10z m260 -11 c0 -5 -4 -10 -10 -10 -5 0 -10
5 -10 10 0 6 5 10 10 10 6 0 10 -4 10 -10z m-519 -51 c-20 -21 -25 -17 -17 16
5 21 9 23 20 13 12 -11 11 -16 -3 -29z m219 31 c0 -5 -8 -10 -17 -10 -15 0
-16 2 -3 10 19 12 20 12 20 0z m210 -29 c1 10 3 9 11 -3 5 -10 16 -15 24 -12
8 4 15 2 15 -4 0 -5 -15 -12 -32 -15 -24 -3 -38 1 -51 14 -24 26 -11 46 14 23
15 -13 19 -14 19 -3z m-62 -19 c2 -7 -3 -12 -12 -12 -9 0 -16 7 -16 16 0 17
22 14 28 -4z m-558 -1 c0 -5 -9 -11 -20 -14 -13 -3 -20 0 -20 9 0 8 9 14 20
14 11 0 20 -4 20 -9z m-67 -18 c-7 -2 -19 -2 -25 0 -7 3 -2 5 12 5 14 0 19 -2
13 -5z m3327 -75 c0 -18 -2 -20 -9 -8 -6 8 -7 18 -5 22 9 14 14 9 14 -14z
m-3662 -5 c-10 -2 -18 -8 -18 -13 0 -5 -7 -7 -16 -3 -13 5 -13 7 -2 14 7 5 22
8 33 8 17 -1 17 -2 3 -6z m5010 -110 c101 -102 102 -104 102 -206 0 -66 -3
-89 -14 -93 -17 -7 -76 22 -76 37 0 6 -18 32 -40 58 -28 33 -43 62 -49 98 -6
28 -19 66 -31 85 -23 38 -25 59 -8 76 24 24 50 11 116 -55z m-4893 -97 c19 -8
40 -24 47 -35 7 -12 18 -21 25 -21 19 0 16 -23 -5 -41 -26 -22 -72 -7 -121 39
-37 34 -55 62 -32 48 5 -3 14 1 21 9 15 19 22 19 65 1z m3360 -166 c8 -13 -5
-13 -25 0 -13 8 -13 10 2 10 9 0 20 -4 23 -10z m2908 -499 c32 -80 81 -193
108 -250 32 -69 46 -108 40 -114 -7 -7 -13 -2 -20 14 -35 91 -90 217 -128 294
-52 104 -93 208 -92 233 1 33 33 -28 92 -177z m-3067 55 c101 -2 102 -2 129
-34 15 -18 33 -32 40 -32 8 0 17 -5 20 -11 4 -6 -3 -9 -21 -7 -15 2 -29 -2
-31 -8 -2 -7 17 -11 54 -10 39 0 73 -7 103 -21 l45 -21 -80 -3 c-44 -2 -100
-3 -124 -4 -26 0 -46 -5 -48 -12 -4 -10 16 -13 77 -13 52 0 79 -4 75 -10 -14
-23 -68 -40 -136 -44 -68 -3 -74 -5 -88 -32 -23 -42 -60 -104 -89 -146 -23
-36 -28 -38 -77 -38 -53 0 -84 18 -70 40 16 26 -68 76 -122 72 -13 -1 -23 0
-23 3 0 2 18 32 40 66 22 34 40 66 40 71 0 4 -18 5 -40 2 -21 -4 -47 -3 -57 2
-22 10 -46 13 -148 16 -44 2 -87 8 -95 13 -8 6 -37 10 -65 10 -27 0 -52 4 -55
9 -3 5 31 24 75 41 44 17 104 46 132 64 49 30 61 33 175 41 68 4 155 6 193 3
39 -3 116 -6 171 -7z m872 -33 l25 -33 -31 0 c-45 0 -62 9 -62 34 0 47 31 47
68 -1z m77 -81 l20 -27 -49 -49 c-42 -43 -48 -46 -43 -24 9 33 -18 46 -33 18
-8 -15 -21 -20 -55 -20 -44 0 -45 1 -45 31 l0 30 71 -3 c67 -2 88 6 89 34 0
15 -21 18 -26 4 -5 -12 -22 -16 -75 -16 -38 0 -69 3 -69 8 0 18 50 37 110 42
78 6 80 6 105 -28z m-507 -129 c20 -15 38 -28 40 -29 10 -5 -24 -53 -41 -58
-27 -7 -31 -2 -18 23 9 16 8 25 -6 41 -15 17 -29 20 -91 20 -47 0 -71 4 -67
10 4 6 10 8 14 5 5 -2 28 -1 52 4 69 14 78 13 117 -16z m382 -3 c0 -6 -7 -24
-15 -40 -17 -33 -38 -38 -61 -16 -7 8 -19 16 -25 18 -9 3 -9 9 0 26 9 18 21
22 56 22 25 0 45 -5 45 -10z m-677 -20 c-12 -5 -26 -16 -31 -26 -7 -12 -24
-17 -62 -18 -42 -2 -49 0 -35 10 11 8 12 13 4 16 -7 2 -9 10 -5 16 4 8 34 12
79 11 51 0 66 -3 50 -9z m190 -7 c-7 -2 -13 -11 -13 -19 0 -8 -9 -14 -21 -14
-11 0 -17 5 -14 10 4 6 10 8 15 5 4 -3 10 2 14 10 3 8 11 15 18 14 10 0 10 -2
1 -6z m4902 -33 c3 -5 -1 -10 -10 -10 -9 0 -13 5 -10 10 3 6 8 10 10 10 2 0 7
-4 10 -10z m-70 -10 c-3 -5 -10 -10 -16 -10 -5 0 -9 5 -9 10 0 6 7 10 16 10 8
0 12 -4 9 -10z m0 -40 c4 -6 3 -10 -2 -9 -21 4 -34 -2 -27 -13 4 -7 3 -8 -4
-4 -6 4 -9 13 -5 21 6 17 29 20 38 5z m-4822 -20 c-66 -40 -109 -58 -143 -60
-50 -3 -51 -3 -40 26 7 19 7 31 -1 40 -10 12 7 14 102 14 l114 0 -32 -20z
m4817 -40 c0 -5 -4 -10 -10 -10 -5 0 -10 5 -10 10 0 6 5 10 10 10 6 0 10 -4
10 -10z m50 -10 c0 -5 -6 -10 -14 -10 -8 0 -18 5 -21 10 -3 6 3 10 14 10 12 0
21 -4 21 -10z m-120 -10 c0 -5 10 -18 22 -30 28 -26 13 -26 -30 0 -18 11 -30
25 -27 30 8 13 35 13 35 0z m90 -20 c0 -5 -2 -10 -4 -10 -3 0 -8 5 -11 10 -3
6 -1 10 4 10 6 0 11 -4 11 -10z m-194 -65 c1 -7 -4 -16 -10 -18 -9 -4 -11 3
-8 19 5 25 14 25 18 -1z m134 -5 c8 -16 7 -18 -4 -14 -8 3 -16 14 -19 25 -6
23 9 16 23 -11z m25 10 c10 -11 16 -20 13 -20 -3 0 -13 9 -23 20 -10 11 -16
20 -13 20 3 0 13 -9 23 -20z m56 3 c13 -16 12 -17 -3 -4 -17 13 -22 21 -14 21
2 0 10 -8 17 -17z m43 -21 c3 -5 -1 -9 -9 -9 -8 0 -15 4 -15 9 0 4 4 8 9 8 6
0 12 -4 15 -8z m-7737 -22 c2 -17 -39 -50 -62 -50 -15 0 -2 19 18 25 l22 7
-25 7 c-24 7 -24 7 -5 19 30 17 51 14 52 -8z m-77 6 c0 -2 -7 -6 -15 -10 -8
-3 -15 -1 -15 4 0 6 7 10 15 10 8 0 15 -2 15 -4z m7673 -16 c10 -12 9 -12 -4
-2 -9 6 -18 9 -21 6 -3 -3 -9 -1 -12 4 -9 15 22 8 37 -8z m-52 -13 c-13 -13
-26 -3 -16 12 3 6 11 8 17 5 6 -4 6 -10 -1 -17z m134 13 c3 -5 1 -10 -4 -10
-6 0 -11 5 -11 10 0 6 2 10 4 10 3 0 8 -4 11 -10z m-8255 -8 c0 -5 -12 -14
-27 -21 l-28 -11 24 20 c26 22 31 24 31 12z m594 -16 c-3 -8 -13 -17 -22 -21
-13 -5 -13 -2 3 15 21 24 26 25 19 6z m7705 -61 c1 -6 -2 -6 -7 1 -4 6 -15 14
-26 17 -14 6 -17 4 -12 -9 6 -15 4 -15 -10 -3 -10 8 -12 15 -5 17 6 2 11 13
11 25 0 20 2 20 25 -8 13 -16 24 -34 24 -40z m-7669 40 c0 -8 -4 -15 -10 -15
-5 0 -10 7 -10 15 0 8 5 15 10 15 6 0 10 -7 10 -15z m-690 -2 c0 -11 -48 -32
-55 -25 -4 4 27 23 53 31 1 1 2 -2 2 -6z m310 -1 c0 -4 -9 -8 -20 -9 -11 -1
-18 2 -15 8 7 11 35 12 35 1z m7958 -38 c-4 -3 -12 5 -18 18 -12 22 -12 22 6
6 10 -10 15 -20 12 -24z m-7648 22 c0 -3 -4 -8 -10 -11 -5 -3 -10 -1 -10 4 0
6 5 11 10 11 6 0 10 -2 10 -4z m-690 -22 c0 -7 -8 -10 -20 -7 -22 6 -19 20 5
20 8 0 15 -6 15 -13z m150 1 c-7 -8 -18 -15 -24 -15 -6 0 -2 7 8 15 25 19 32
19 16 0z m360 1 c0 -2 -7 -7 -16 -10 -8 -3 -12 -2 -9 4 6 10 25 14 25 6z
m-300 -26 c0 -5 -5 -10 -11 -10 -5 0 -7 5 -4 10 3 6 8 10 11 10 2 0 4 -4 4
-10z m-236 -12 c-3 -4 -15 -7 -27 -6 -12 1 -33 -2 -47 -6 -23 -6 -24 -6 -7 7
18 15 90 19 81 5z m171 2 c-3 -5 -12 -10 -18 -10 -7 0 -6 4 3 10 19 12 23 12
15 0z m545 5 c0 -2 -10 -10 -22 -16 -21 -11 -22 -11 -9 4 13 16 31 23 31 12z
m6292 -27 c-7 -7 -12 -8 -12 -2 0 14 12 26 19 19 2 -3 -1 -11 -7 -17z m1353 9
c13 -10 15 -16 6 -21 -17 -11 -41 0 -41 19 0 19 11 19 35 2z m75 -67 c0 -5 -2
-10 -4 -10 -3 0 -8 5 -11 10 -3 6 -1 10 4 10 6 0 11 -4 11 -10z m-36 -45 c-4
-8 -8 -15 -10 -15 -2 0 -4 7 -4 15 0 8 4 15 10 15 5 0 7 -7 4 -15z m146 -136
c0 -9 -9 -27 -19 -40 -19 -23 -20 -23 -27 -4 -4 11 -12 23 -18 27 -7 5 -4 8 7
8 9 0 16 3 16 8 -3 16 2 21 21 19 11 -1 20 -8 20 -18z"/>
<path d="M2017 5458 c-26 -47 -47 -87 -47 -91 0 -9 70 -127 89 -148 17 -20 63
-24 156 -13 l50 6 43 75 c45 82 50 104 27 123 -8 7 -15 18 -15 24 0 7 -7 21
-15 31 -56 74 -45 69 -146 73 l-94 4 -48 -84z m73 -18 c-19 -21 -30 -27 -30
-17 0 15 49 61 57 54 2 -3 -10 -19 -27 -37z m90 36 c0 -3 -4 -8 -10 -11 -5 -3
-10 -1 -10 4 0 6 5 11 10 11 6 0 10 -2 10 -4z m60 -11 c16 -19 0 -19 -26 0
-16 12 -16 14 -3 15 9 0 22 -7 29 -15z m30 -35 c0 -5 -2 -10 -4 -10 -3 0 -8 5
-11 10 -3 6 -1 10 4 10 6 0 11 -4 11 -10z m-77 -16 c-7 -3 -9 -12 -6 -20 4
-10 -2 -14 -21 -14 -19 0 -26 5 -26 20 0 16 6 20 33 19 17 0 27 -3 20 -5z
m-138 -54 c3 -5 1 -10 -4 -10 -6 0 -11 5 -11 10 0 6 2 10 4 10 3 0 8 -4 11
-10z m145 -24 c0 -18 -42 -29 -55 -14 -7 7 -6 9 1 5 7 -4 17 0 24 8 16 19 30
19 30 1z m-93 -56 c6 0 13 -7 17 -15 3 -8 1 -15 -5 -15 -14 0 -31 18 -53 55
l-18 30 24 -27 c13 -16 29 -28 35 -28z m173 42 c0 -11 -20 -33 -50 -57 -23
-18 -23 -18 3 11 15 16 27 35 27 42 0 7 5 12 10 12 6 0 10 -4 10 -8z"/>
<path d="M1415 5341 c-3 -10 -14 -26 -25 -36 -11 -10 -20 -24 -20 -32 0 -7 -9
-22 -20 -33 -11 -11 -20 -28 -20 -38 0 -10 -4 -22 -9 -27 -5 -6 -19 -27 -31
-49 l-21 -38 44 -77 c24 -42 59 -102 78 -133 l33 -58 67 0 c36 0 107 3 157 6
l92 7 75 133 c41 74 75 136 75 139 0 10 -103 190 -127 223 l-24 32 -159 0
c-146 0 -159 -1 -165 -19z m269 -40 c70 -34 109 -97 114 -182 3 -52 0 -74 -17
-107 -72 -141 -249 -170 -356 -58 -110 113 -76 284 70 353 61 29 120 27 189
-6z"/>
<path d="M1525 5269 c-19 -36 -19 -36 20 -41 28 -3 30 -1 33 35 3 32 0 37 -17
37 -13 0 -27 -12 -36 -31z"/>
<path d="M1590 5259 c0 -41 0 -41 33 -34 17 4 34 9 35 10 10 9 -35 65 -50 65
-14 0 -18 -8 -18 -41z"/>
<path d="M1476 5274 c-22 -13 -26 -18 -15 -25 21 -13 25 -11 43 16 19 29 13
31 -28 9z"/>
<path d="M1666 5265 c17 -26 29 -31 39 -16 5 9 -31 41 -47 41 -5 0 -1 -11 8
-25z"/>
<path d="M1417 5214 c-10 -13 -21 -40 -24 -58 -5 -30 -2 -34 22 -40 15 -4 28
-6 29 -4 1 2 9 27 18 56 15 50 15 53 -2 62 -24 13 -22 14 -43 -16z"/>
<path d="M1707 5232 c-12 -2 -16 -9 -13 -19 4 -9 11 -35 17 -59 10 -41 13 -43
38 -37 36 8 36 7 17 57 -19 51 -33 64 -59 58z"/>
<path d="M1479 5177 c-17 -63 -11 -72 49 -75 l53 -3 -3 53 -3 53 -43 6 c-42 5
-42 5 -53 -34z"/>
<path d="M1628 5212 l-38 -3 0 -55 0 -54 43 0 c59 0 71 10 63 52 -9 50 -25 64
-68 60z"/>
<path d="M1384 5095 c3 -9 6 -24 6 -34 0 -23 20 -48 45 -55 19 -5 20 -2 17 37
-5 49 -7 52 -46 61 -24 6 -27 4 -22 -9z"/>
<path d="M1748 5102 c-23 -3 -27 -8 -30 -50 -3 -26 -4 -48 -3 -49 0 -1 10 0
22 3 14 4 25 20 33 50 7 25 11 46 9 47 -2 1 -16 1 -31 -1z"/>
<path d="M1465 5048 c9 -53 10 -54 61 -63 l42 -6 4 48 c3 26 4 49 4 49 -1 1
-27 5 -60 9 l-58 7 7 -44z"/>
<path d="M1623 5083 c-32 -4 -33 -5 -33 -54 l0 -50 48 7 c26 3 49 8 51 10 2 2
7 24 11 49 8 50 10 49 -77 38z"/>
<path d="M1420 4986 c0 -3 13 -14 30 -26 27 -19 29 -19 23 -3 -4 10 -11 21
-17 25 -12 8 -36 11 -36 4z"/>
<path d="M1706 4974 c-26 -26 -18 -39 9 -14 14 13 25 25 25 27 0 9 -20 1 -34
-13z"/>
<path d="M1490 4960 c0 -17 39 -50 60 -50 16 0 20 7 20 30 0 28 -2 30 -40 30
-22 0 -40 -4 -40 -10z"/>
<path d="M1590 4940 c0 -17 5 -30 13 -30 31 0 55 14 66 36 10 23 10 24 -34 24
-43 0 -45 -1 -45 -30z"/>
<path d="M1898 4803 c-36 -4 -39 -7 -124 -156 -48 -84 -91 -153 -95 -155 -13
-5 1 -54 22 -77 10 -11 39 -60 64 -110 26 -49 56 -107 68 -128 l21 -37 194 2
194 3 94 165 c52 91 94 169 94 174 0 6 -9 19 -19 30 -11 12 -51 82 -89 156
l-69 135 -159 1 c-87 0 -176 -1 -196 -3z m313 -193 c16 -9 19 -22 19 -89 l0
-79 48 -31 47 -31 -177 0 c-112 0 -178 4 -178 10 0 6 48 10 124 10 72 0 127 4
131 10 3 6 -1 7 -9 4 -14 -5 -16 6 -16 76 l0 81 -60 -46 c-33 -25 -60 -49 -60
-53 0 -4 17 -18 38 -32 28 -18 33 -25 20 -28 -10 -2 -30 5 -45 16 -43 30 -110
23 -167 -18 -76 -55 -88 -52 222 -50 122 1 182 -2 182 -9 0 -7 -47 -11 -135
-11 -113 0 -135 -2 -135 -15 0 -19 -5 -19 -36 2 -19 12 -49 17 -112 17 l-87 1
-3 129 c-2 97 1 131 10 138 19 12 356 10 379 -2z"/>
<path d="M1880 4583 c1 -8 99 -90 127 -106 10 -6 37 9 89 47 40 31 74 59 74
61 0 3 -65 5 -145 5 -80 0 -145 -3 -145 -7z"/>
<path d="M1850 4474 c0 -65 3 -83 13 -78 6 5 34 23 60 42 l48 34 -57 44 c-31
24 -58 44 -60 44 -2 0 -4 -39 -4 -86z"/>
<path d="M1698 3973 c-36 -4 -39 -8 -123 -153 -47 -82 -90 -152 -96 -156 -15
-9 -1 -42 47 -115 24 -37 44 -72 44 -78 0 -6 19 -45 43 -86 l42 -75 192 0 192
0 27 48 c15 26 46 79 69 117 108 183 108 182 87 202 -20 20 -77 115 -75 124 1
3 -20 43 -46 90 l-48 84 -159 1 c-88 0 -176 -1 -196 -3z m197 -147 c36 -16 69
-65 59 -90 -6 -16 -43 -20 -144 -16 -71 3 -80 34 -23 86 41 38 58 41 108 20z
m-14 -172 c16 -20 0 -49 -27 -49 -11 -1 -26 -5 -34 -9 -12 -7 -12 -6 -3 4 6 7
9 19 6 26 -6 17 14 44 32 44 7 0 18 -7 26 -16z m-125 -55 c12 -11 25 -32 29
-46 10 -41 -10 -53 -84 -53 -68 0 -111 14 -119 39 -3 9 0 11 8 6 9 -5 11 -4 6
3 -10 16 5 40 40 62 36 24 88 19 120 -11z m337 -9 c29 -33 34 -59 15 -78 -18
-18 -149 -16 -176 4 -31 21 -28 31 20 77 36 35 45 38 77 33 23 -3 46 -17 64
-36z"/>
<path d="M2960 3600 c19 -13 30 -13 30 0 0 6 -10 10 -22 10 -19 0 -20 -2 -8
-10z"/>
<path d="M2697 5873 c-13 -21 -27 -44 -31 -51 -9 -14 61 -162 76 -162 4 0 8
-9 8 -20 0 -10 9 -27 19 -37 11 -10 38 -55 61 -101 l41 -82 222 2 c154 2 181
3 89 5 -106 3 -130 6 -120 16 31 30 97 77 109 79 8 1 -15 4 -51 7 -36 3 -65
11 -65 17 0 6 -8 18 -17 28 -13 12 -18 33 -18 70 0 62 19 86 68 86 18 0 32 5
32 10 0 16 -207 13 -213 -2 -2 -7 -8 -10 -12 -6 -21 19 14 28 116 28 111 0
128 7 97 38 -10 10 -10 17 0 32 24 38 15 47 -53 53 -36 4 -74 11 -84 17 -11 5
-72 10 -135 10 l-116 0 -23 -37z m291 -220 l3 -63 -91 0 -90 0 0 58 c0 32 2
61 5 64 3 3 43 5 88 4 l82 -1 3 -62z"/>
<path d="M2820 5660 l0 -40 80 0 80 0 0 40 0 40 -80 0 -80 0 0 -40z"/>
<path d="M3296 5895 c-13 -10 -44 -15 -93 -15 -78 0 -87 -8 -61 -50 9 -15 10
-22 1 -31 -6 -6 -9 -18 -6 -25 4 -11 30 -14 109 -14 97 0 104 -1 104 -20 0
-11 7 -20 15 -20 10 0 15 -10 15 -34 l0 -34 34 10 c26 8 42 25 73 76 l39 66
-30 53 -30 53 -76 0 c-50 -1 -81 -6 -94 -15z"/>
<path d="M3510 5903 c0 -3 12 -27 26 -51 l27 -45 -32 -58 -32 -58 31 16 c17 8
38 12 48 8 9 -3 14 -3 10 0 -3 4 2 15 13 26 15 15 33 19 87 19 37 0 97 5 135
10 37 6 116 11 177 12 l109 3 -30 54 c-17 29 -28 55 -26 57 3 3 19 -20 36 -51
l31 -55 134 0 134 0 23 38 c13 20 29 47 37 60 14 21 13 22 -22 22 -32 0 -36
-3 -36 -25 l0 -25 -130 0 -130 0 0 25 c0 24 -2 25 -60 24 -33 -1 -60 -3 -60
-5 0 -3 5 -13 12 -24 10 -15 9 -26 -5 -55 -16 -34 -20 -36 -58 -33 -53 4 -80
41 -62 88 l11 30 -199 0 c-109 0 -199 -3 -199 -7z"/>
<path d="M4170 5898 c0 -5 43 -8 95 -8 52 0 95 3 95 8 0 4 -43 7 -95 7 -52 0
-95 -3 -95 -7z"/>
<path d="M4454 5843 c-20 -38 -42 -71 -48 -75 -6 -4 -31 -8 -56 -9 -25 -1 -36
-3 -25 -6 79 -16 187 -49 234 -70 111 -50 102 -41 95 -96 -5 -33 -3 -48 3 -44
6 4 8 -3 6 -17 -4 -17 3 -29 23 -45 25 -20 26 -22 10 -39 -18 -21 -21 -42 -6
-42 6 0 10 -9 10 -20 0 -11 -5 -20 -11 -20 -8 0 -8 -5 1 -15 17 -21 2 -19 -45
5 -22 11 -46 18 -53 15 -7 -3 -11 -1 -8 4 3 5 -1 12 -10 15 -10 4 -13 2 -9 -7
4 -6 -1 -3 -9 7 -9 11 -16 17 -16 14 0 -9 -92 22 -110 37 -22 18 -78 35 -95
29 -8 -4 -15 -1 -15 6 0 6 -4 9 -9 6 -4 -3 -35 2 -67 11 -45 12 -98 15 -224
14 -178 -2 -301 -24 -440 -77 -149 -58 -339 -180 -341 -218 0 -12 -3 -16 -6
-9 -6 15 -11 11 -98 -76 -36 -35 -87 -97 -115 -137 -83 -120 -163 -284 -139
-284 5 0 43 34 84 75 57 58 91 83 149 110 42 19 80 35 84 35 5 0 39 29 75 65
42 41 90 77 132 96 38 19 75 45 90 65 31 41 184 133 275 166 56 20 83 23 200
23 125 0 143 -3 240 -34 58 -18 108 -38 111 -44 4 -5 29 -12 55 -14 27 -3 54
-9 59 -13 6 -4 43 -11 82 -15 40 -4 70 -11 67 -16 -3 -5 3 -9 13 -9 11 0 34
-16 53 -35 19 -19 42 -35 51 -35 10 0 21 -5 25 -12 5 -7 3 -8 -6 -3 -8 5 -11
3 -8 -6 3 -8 14 -13 24 -11 14 2 16 1 5 -6 -25 -18 29 -80 98 -112 83 -39 241
-164 241 -189 0 -5 13 -20 28 -33 15 -13 31 -31 34 -39 7 -18 48 -33 48 -17 0
6 15 8 35 6 21 -2 36 1 39 8 3 9 -8 12 -37 12 -79 -1 -85 1 -54 18 15 8 27 20
27 26 0 7 4 7 13 -1 8 -6 17 -7 21 -3 4 4 6 1 4 -7 -2 -8 6 -14 20 -16 13 -1
22 4 22 12 0 22 -23 40 -58 45 -24 3 -32 1 -33 -11 0 -11 -2 -12 -6 -3 -2 6
-10 12 -16 12 -7 0 -17 8 -24 18 -9 15 -8 19 3 19 8 0 14 -6 14 -14 0 -19 28
-16 33 5 4 16 5 16 6 0 1 -11 9 -18 23 -18 19 0 16 6 -23 43 -35 34 -45 39
-51 27 -6 -13 -7 -13 -7 2 -1 9 -4 23 -7 32 -11 30 52 -5 65 -36 8 -16 21 -32
30 -36 9 -3 20 -11 24 -19 11 -18 27 -16 27 3 0 9 -5 12 -12 8 -7 -4 -8 -3 -4
4 5 8 13 9 25 2 10 -5 22 -6 26 -2 5 4 5 2 2 -4 -8 -15 37 -65 61 -67 13 -1
18 -6 14 -17 -5 -13 -3 -13 11 -2 15 13 13 42 -3 42 -12 0 -63 51 -56 57 3 4
24 -12 46 -35 33 -36 46 -42 82 -43 39 -1 40 -2 13 -8 -26 -6 -27 -8 -10 -13
29 -9 135 -7 135 3 0 4 -10 10 -22 12 -13 2 9 4 47 4 41 0 53 -2 28 -4 -24 -2
-43 -8 -43 -13 0 -4 52 -8 115 -7 87 1 115 4 115 14 0 7 4 13 10 13 5 0 7 -7
4 -15 -5 -11 -2 -13 10 -9 9 3 14 9 12 13 -10 16 34 8 49 -9 10 -11 23 -17 29
-13 6 3 8 2 3 -2 -11 -12 23 -45 46 -45 12 0 46 -26 81 -63 34 -34 78 -73 99
-86 20 -12 35 -27 32 -31 -3 -5 10 -12 30 -16 19 -3 35 -10 35 -14 0 -5 12
-11 28 -13 l27 -4 -29 -2 -30 -1 34 -30 c18 -16 40 -30 47 -30 8 0 16 -7 19
-15 4 -9 20 -16 43 -16 27 -1 30 -3 11 -6 -27 -5 -52 -23 -32 -23 7 0 12 -6
12 -14 0 -9 10 -13 25 -12 16 0 23 6 20 14 -2 6 0 12 5 12 6 0 10 -9 10 -20 0
-15 -7 -20 -26 -20 -23 0 -25 -2 -14 -15 10 -12 15 -13 20 -4 6 8 9 8 11 0 4
-11 52 -18 142 -20 38 -1 47 -4 46 -18 0 -11 -3 -13 -6 -5 -5 14 -49 16 -58 3
-3 -5 -19 -12 -35 -16 -35 -8 -31 -25 6 -25 15 0 24 -6 24 -16 0 -8 5 -12 10
-9 6 3 10 -1 10 -10 0 -9 -4 -14 -9 -10 -5 3 -12 1 -16 -5 -4 -6 24 -11 77
-12 l83 -1 -65 -7 c-36 -4 -57 -7 -47 -8 9 -1 17 -10 18 -19 0 -15 2 -15 9 2
7 17 9 17 9 3 1 -10 5 -18 10 -18 5 0 11 8 13 18 3 14 5 13 10 -5 5 -20 2 -23
-25 -23 -27 -1 -29 -2 -14 -11 9 -6 43 -10 75 -10 174 -1 285 2 280 7 -5 4
-125 12 -233 15 -11 1 -14 3 -7 6 6 3 12 12 13 21 0 14 2 13 10 -3 8 -17 8
-15 4 8 l-5 27 57 -2 c57 -2 57 -2 11 -5 -39 -3 -46 -6 -35 -17 9 -10 14 -11
19 -2 5 7 8 5 8 -6 0 -16 12 -18 109 -18 96 0 110 2 114 18 4 16 5 16 6 0 0
-10 8 -18 16 -18 8 0 15 8 16 18 0 14 2 14 9 -3 7 -17 9 -17 9 -2 1 10 9 17
20 17 11 0 22 -8 24 -17 4 -17 5 -17 6 0 0 9 7 17 15 17 8 0 17 -8 19 -17 4
-14 5 -13 6 4 1 22 -2 22 -121 26 -89 2 -64 4 92 6 118 2 207 5 198 8 -10 2
-18 11 -18 20 0 9 6 13 15 9 8 -3 15 -1 15 4 0 5 -8 11 -17 13 -10 3 3 5 29 4
38 0 45 -3 41 -16 -5 -13 -3 -12 8 2 8 9 34 21 59 26 37 7 21 9 -80 10 -133 1
-148 2 -167 14 -7 5 -13 4 -13 -1 0 -6 -9 -8 -20 -5 -11 3 -17 9 -14 14 3 5 0
9 -5 9 -6 0 -11 -5 -11 -11 0 -8 -5 -8 -15 1 -12 10 -15 10 -15 -1 0 -9 -3
-10 -8 -3 -4 6 -14 14 -22 17 -13 5 -13 6 0 7 21 3 113 7 190 9 46 1 61 4 50
11 -11 7 -3 10 29 10 34 0 42 -3 38 -14 -4 -10 -1 -13 7 -10 13 5 75 10 149
13 57 2 44 17 -15 18 -178 2 -280 6 -260 10 12 2 22 9 22 14 0 6 -4 7 -10 4
-5 -3 -10 -1 -10 4 0 6 16 11 35 11 24 0 35 -5 35 -15 0 -8 7 -15 15 -15 18 0
20 16 3 23 -14 6 40 10 114 8 26 0 49 3 52 7 2 4 -14 8 -37 9 -177 4 -174 5
107 27 38 3 76 11 84 18 21 18 107 136 195 268 99 150 200 276 238 299 17 10
56 24 87 30 31 6 147 29 256 51 110 21 202 44 206 51 4 6 13 8 19 4 15 -9 93
4 86 15 -5 8 56 24 467 125 141 35 261 66 267 70 8 4 11 103 11 306 l0 299
-1886 0 -1885 0 28 -24 c68 -57 97 -181 60 -255 -9 -18 -14 -37 -11 -42 2 -5
-3 -13 -14 -20 -17 -10 -15 -14 16 -45 22 -22 32 -41 30 -56 -3 -22 -7 -23
-98 -23 -91 0 -95 1 -98 23 -3 19 -10 22 -43 22 -37 0 -109 23 -109 34 0 3 16
-2 35 -10 43 -17 121 -19 128 -1 6 14 60 43 97 51 33 7 75 92 75 150 0 56 -38
136 -81 170 -32 26 -40 27 -97 22 -178 -17 -179 -18 -184 -34 -2 -10 -15 -22
-29 -29 -22 -10 -24 -10 -14 2 7 8 9 18 6 24 -3 5 0 11 6 14 28 10 -7 22 -64
22 l-61 0 -53 -90 c-30 -49 -54 -94 -53 -100 0 -5 8 -26 19 -45 10 -19 24 -45
29 -58 6 -13 22 -38 35 -55 13 -18 43 -71 66 -119 l43 -88 203 0 c150 0 206 3
214 13 6 6 56 88 110 181 l98 169 -34 66 c-19 36 -39 71 -44 78 -6 7 -10 20
-10 29 0 13 3 14 15 4 8 -7 15 -17 15 -22 0 -5 11 -24 24 -41 13 -18 33 -50
45 -73 l23 -40 -109 -190 c-77 -135 -113 -189 -126 -188 -9 0 -109 1 -222 2
l-206 2 -17 31 c-9 17 -30 47 -45 67 -15 20 -41 63 -58 96 -37 75 -48 93 -76
133 -13 17 -23 38 -23 46 0 8 23 53 50 100 28 47 50 88 50 91 0 3 -96 6 -212
6 l-213 0 -23 -40 -23 -40 -69 0 -69 0 -23 40 -23 40 -107 0 -106 0 -38 -67z
m1334 11 c34 -25 72 -98 72 -139 0 -54 -40 -117 -90 -142 -54 -28 -92 -29
-147 -3 -122 55 -121 241 2 296 41 19 129 13 163 -12z m-669 -55 c18 -30 18
-34 3 -65 -14 -31 -20 -34 -57 -34 -37 0 -44 4 -60 34 -18 33 -18 34 4 65 18
24 30 31 57 31 28 0 38 -6 53 -31z m361 -74 c-7 -59 -7 -59 -9 -13 -1 40 7 85
14 76 1 -2 -2 -30 -5 -63z m-555 -6 l36 -61 -36 -64 -36 -64 -73 0 -74 0 -32
61 -31 60 36 65 36 64 69 0 69 0 36 -61z m-248 -111 c-3 -8 -6 -5 -6 6 -1 11
2 17 5 13 3 -3 4 -12 1 -19z m863 -43 c19 -19 32 -35 29 -35 -3 0 -20 16 -39
35 -19 19 -32 35 -29 35 3 0 20 -16 39 -35z m-306 -35 l37 -60 -37 -65 -36
-66 -71 3 -71 3 -34 59 -35 60 28 50 c42 77 41 76 115 76 l67 0 37 -60z m1186
-76 c0 -8 -7 -28 -15 -44 -13 -25 -21 -30 -54 -30 -34 0 -42 5 -59 34 -20 33
-20 35 -2 64 25 41 75 48 108 14 12 -13 22 -30 22 -38z m-187 -11 l36 -58 -34
-60 -33 -60 -74 -3 -73 -3 -32 54 c-17 29 -33 57 -35 62 -1 6 12 36 30 68 l32
57 74 0 73 0 36 -57z m-1448 -167 c8 -7 26 -12 40 -10 19 2 25 -1 21 -11 -3
-8 0 -16 7 -19 11 -4 -18 -10 -36 -7 -5 1 -6 -3 -2 -9 3 -5 28 -10 54 -10 26
0 51 -4 57 -9 9 -10 64 -23 64 -15 0 17 -46 43 -82 47 l-43 4 46 1 c38 2 50
-3 72 -26 15 -16 24 -32 20 -37 -5 -4 -3 -5 3 -2 6 4 67 -50 135 -119 159
-161 149 -150 149 -166 0 -7 -8 -1 -17 12 -22 33 -32 39 -54 33 -22 -6 -26
-23 -5 -23 18 0 27 -23 15 -41 -7 -11 -9 -10 -9 6 0 15 -2 17 -9 6 -7 -10 -10
-6 -15 15 -4 16 -16 35 -27 43 -12 7 -18 8 -15 3 3 -5 -3 -12 -14 -15 -11 -3
-22 -1 -25 4 -3 4 -12 6 -19 3 -8 -3 -17 0 -22 7 -5 8 -3 10 7 4 12 -8 12 -6
0 8 -7 9 -18 14 -24 10 -6 -4 -7 -1 -2 7 5 8 -1 20 -16 32 -16 13 -18 18 -7
14 10 -3 20 -1 23 5 7 11 25 2 25 -12 0 -6 -4 -7 -10 -4 -5 3 -10 2 -10 -4 0
-5 9 -13 20 -16 11 -3 20 -11 20 -18 0 -6 6 -2 14 8 12 16 16 17 29 6 9 -7 20
-10 26 -7 5 3 12 -1 15 -10 4 -10 2 -13 -6 -8 -7 4 -8 3 -4 -4 11 -17 24 -15
28 6 5 20 -30 55 -45 45 -6 -4 -8 0 -4 10 3 10 2 17 -3 17 -6 0 -10 -8 -10
-17 -1 -10 -7 0 -15 21 -16 44 -29 56 -56 49 -25 -7 -24 -14 8 -37 14 -11 23
-14 19 -8 -4 7 -3 12 2 12 5 0 12 -11 14 -25 6 -32 -2 -32 -32 0 -12 13 -27
22 -32 19 -5 -3 -7 0 -6 7 2 7 -7 18 -19 23 -12 6 -24 19 -27 29 -3 12 -9 16
-17 11 -7 -4 -10 -3 -6 3 4 6 -4 20 -17 32 -18 17 -25 19 -29 9 -3 -8 -6 -5
-7 7 l-1 20 -9 -20 c-8 -18 -9 -18 -9 -2 -1 10 -5 16 -10 12 -5 -3 -12 -1 -15
4 -4 5 4 12 16 14 13 2 -5 5 -40 6 -37 0 -61 5 -57 10 5 9 -27 33 -36 28 -2
-1 3 4 11 12 11 10 12 14 3 18 -7 3 -13 9 -13 14 0 13 9 11 25 -5z m1809 -61
c25 -42 46 -81 46 -88 0 -7 14 -34 30 -62 16 -27 30 -56 30 -63 0 -10 -127
-236 -146 -261 -2 -2 -73 0 -159 4 l-155 7 -74 131 -75 131 18 35 c10 20 29
57 42 84 13 26 34 59 47 74 12 14 22 32 22 39 0 31 52 43 192 44 l137 0 45
-75z m-1981 18 c-7 -2 -19 -2 -25 0 -7 3 -2 5 12 5 14 0 19 -2 13 -5z m50 0
c-7 -2 -19 -2 -25 0 -7 3 -2 5 12 5 14 0 19 -2 13 -5z m1416 -47 l21 -34 -20
-34 c-19 -32 -22 -34 -61 -29 -30 5 -45 13 -57 33 -15 25 -15 29 3 62 17 31
24 36 56 36 32 0 41 -5 58 -34z m-2822 2 c-3 -8 -6 -5 -6 6 -1 11 2 17 5 13 3
-3 4 -12 1 -19z m30 0 c-3 -8 -6 -5 -6 6 -1 11 2 17 5 13 3 -3 4 -12 1 -19z
m20 0 c-3 -8 -6 -5 -6 6 -1 11 2 17 5 13 3 -3 4 -12 1 -19z m40 0 c-3 -8 -6
-5 -6 6 -1 11 2 17 5 13 3 -3 4 -12 1 -19z m50 0 c-3 -8 -6 -5 -6 6 -1 11 2
17 5 13 3 -3 4 -12 1 -19z m1266 15 c-18 -3 -20 -7 -10 -18 9 -9 14 -10 19 -1
5 6 8 2 8 -11 0 -27 -18 -22 -43 12 l-18 25 33 -1 c23 -1 26 -3 11 -6z m123
-8 c9 -8 11 -15 6 -15 -5 0 -15 7 -22 15 -7 8 -9 15 -6 15 4 0 14 -7 22 -15z
m304 -27 c0 -4 -11 -8 -25 -8 -14 0 -25 4 -25 10 0 5 11 9 25 8 14 -1 25 -6
25 -10z m-1780 -22 c0 -3 -4 -8 -10 -11 -5 -3 -10 -1 -10 4 0 6 5 11 10 11 6
0 10 -2 10 -4z m2075 -186 c3 -5 -1 -10 -9 -10 -8 0 -18 5 -21 10 -3 6 1 10 9
10 8 0 18 -4 21 -10z m-347 -35 c-3 -3 -9 2 -12 12 -6 14 -5 15 5 6 7 -7 10
-15 7 -18z m276 -51 c3 -8 2 -12 -4 -9 -6 3 -10 10 -10 16 0 14 7 11 14 -7z
m-50 -10 c4 -10 1 -14 -6 -12 -15 5 -23 28 -10 28 5 0 13 -7 16 -16z m289
-111 c-7 -2 -19 -2 -25 0 -7 3 -2 5 12 5 14 0 19 -2 13 -5z m190 0 c-7 -2 -19
-2 -25 0 -7 3 -2 5 12 5 14 0 19 -2 13 -5z m50 0 c-7 -2 -19 -2 -25 0 -7 3 -2
5 12 5 14 0 19 -2 13 -5z m1997 -56 c0 -9 -10 -12 -30 -9 -35 5 -30 22 6 22
13 0 24 -6 24 -13z m40 1 c0 -4 -7 -8 -15 -8 -8 0 -15 4 -15 8 0 5 7 9 15 9 8
0 15 -4 15 -9z m17 -10 c-3 -8 -6 -5 -6 6 -1 11 2 17 5 13 3 -3 4 -12 1 -19z
m68 12 c3 -5 1 -10 -4 -10 -6 0 -11 5 -11 10 0 6 2 10 4 10 3 0 8 -4 11 -10z
m-217 -7 c-10 -2 -26 -2 -35 0 -10 3 -2 5 17 5 19 0 27 -2 18 -5z m0 -40 c-10
-2 -26 -2 -35 0 -10 3 -2 5 17 5 19 0 27 -2 18 -5z m138 -5 c5 -8 2 -9 -9 -5
-9 3 -19 3 -21 -2 -3 -4 -20 -5 -38 -2 l-33 5 30 7 c47 10 63 10 71 -3z m-336
-148 c0 -7 -46 -7 -54 0 -2 3 9 6 25 6 16 1 29 -2 29 -6z m30 6 c0 -3 -4 -8
-10 -11 -5 -3 -10 -1 -10 4 0 6 5 11 10 11 6 0 10 -2 10 -4z m-1051 -29 c8
-10 7 -14 -2 -14 -8 0 -14 6 -14 14 0 7 1 13 2 13 2 0 8 -6 14 -13z m-47 -6
c8 11 9 11 6 1 -4 -16 -22 -18 -25 -2 -1 7 0 6 4 -1 4 -8 8 -7 15 2z m835 -27
c-3 -3 -12 -4 -19 -1 -8 3 -5 6 6 6 11 1 17 -2 13 -5z m446 -31 c-7 -2 -21 -2
-30 0 -10 3 -4 5 12 5 17 0 24 -2 18 -5z m-986 -39 c-3 -3 -12 -4 -19 -1 -8 3
-5 6 6 6 11 1 17 -2 13 -5z m-174 -21 c-7 -2 -19 -2 -25 0 -7 3 -2 5 12 5 14
0 19 -2 13 -5z m44 1 c-3 -3 -12 -4 -19 -1 -8 3 -5 6 6 6 11 1 17 -2 13 -5z
m666 -1 c-7 -2 -19 -2 -25 0 -7 3 -2 5 12 5 14 0 19 -2 13 -5z m114 0 c-20 -2
-52 -2 -70 0 -17 2 0 4 38 4 39 0 53 -2 32 -4z m-798 -46 c-1 -18 -2 -19 -6
-4 -4 17 -6 17 -17 2 -11 -15 -12 -15 -12 2 0 11 8 20 18 20 13 1 18 -5 17
-20z m178 -9 c-3 -7 -5 -2 -5 12 0 14 2 19 5 13 2 -7 2 -19 0 -25z m533 12 c0
-11 -2 -20 -4 -20 -2 0 -6 9 -9 20 -3 11 -1 20 4 20 5 0 9 -9 9 -20z m30 0 c0
-11 -4 -20 -8 -20 -4 0 -8 9 -8 20 0 11 4 20 8 20 4 0 8 -9 8 -20z m-797 -17
c-7 -2 -19 -2 -25 0 -7 3 -2 5 12 5 14 0 19 -2 13 -5z m289 -42 c48 -1 56 -4
51 -17 -4 -11 -8 -12 -13 -4 -9 14 -100 10 -100 -4 0 -6 -4 -5 -9 3 -6 9 -20
12 -40 9 -17 -2 -31 -1 -31 3 0 9 35 15 65 13 11 -1 46 -3 77 -3z m327 -13 c0
-13 -3 -17 -6 -10 -2 6 -12 12 -21 13 -14 0 -13 2 3 9 11 5 21 9 23 9 1 1 2
-9 1 -21z m-131 5 c-10 -2 -28 -2 -40 0 -13 2 -5 4 17 4 22 1 32 -1 23 -4z
m29 -15 c-3 -8 -6 -5 -6 6 -1 11 2 17 5 13 3 -3 4 -12 1 -19z m53 14 c0 -4 -9
-8 -20 -8 -11 0 -20 4 -20 8 0 4 9 8 20 8 11 0 20 -4 20 -8z m137 -84 c-3 -7
-5 -2 -5 12 0 14 2 19 5 13 2 -7 2 -19 0 -25z m78 2 c4 0 5 6 2 13 -7 19 25
17 41 -2 12 -14 13 -14 8 2 -3 9 -1 17 4 17 6 0 10 -11 10 -25 0 -26 2 -26
-117 -16 -7 1 -13 6 -13 12 0 6 9 8 22 4 17 -6 20 -4 14 11 -6 18 -5 18 8 2 7
-10 17 -18 21 -18z m-168 -2 c-3 -8 -6 -5 -6 6 -1 11 2 17 5 13 3 -3 4 -12 1
-19z m-159 -3 c-11 -11 -58 -15 -58 -5 0 5 14 10 32 10 17 0 29 -2 26 -5z m45
-2 c-7 -2 -19 -2 -25 0 -7 3 -2 5 12 5 14 0 19 -2 13 -5z m-240 -30 c-7 -2
-19 -2 -25 0 -7 3 -2 5 12 5 14 0 19 -2 13 -5z m190 0 c-7 -2 -19 -2 -25 0 -7
3 -2 5 12 5 14 0 19 -2 13 -5z m-213 -33 c0 -11 -4 -20 -9 -20 -5 0 -7 9 -4
20 3 11 7 20 9 20 2 0 4 -9 4 -20z"/>
<path d="M5656 5848 c-22 -31 -20 -38 9 -38 21 0 25 5 25 30 0 36 -13 38 -34
8z"/>
<path d="M5700 5839 c0 -31 0 -32 41 -26 22 3 43 8 47 11 7 8 -30 36 -43 32
-5 -2 -18 1 -27 6 -15 7 -18 4 -18 -23z m60 -10 c0 -6 -4 -7 -10 -4 -5 3 -10
11 -10 16 0 6 5 7 10 4 6 -3 10 -11 10 -16z"/>
<path d="M5589 5821 c-28 -28 -40 -48 -41 -72 -3 -63 2 -94 19 -106 9 -7 13
-13 8 -13 -4 0 0 -9 10 -20 24 -26 39 -26 25 1 -6 11 -9 25 -6 32 3 9 5 9 5 0
1 -7 11 -14 24 -14 16 -1 18 -2 5 -6 -21 -5 -21 -8 -8 -34 9 -15 22 -19 65
-19 43 0 56 4 65 19 14 27 13 29 -12 34 -20 4 -20 4 4 6 19 1 28 7 31 24 l4
22 2 -23 c0 -13 -4 -32 -9 -43 -14 -24 2 -25 24 0 13 15 14 20 4 24 -9 4 -8 6
3 6 28 2 42 74 17 84 -10 4 -10 6 0 6 16 1 15 26 -3 61 -23 44 -46 30 -40 -24
5 -43 1 -40 -9 7 -6 25 -11 28 -39 25 -30 -3 -32 -6 -35 -47 l-3 -44 54 7 c54
6 55 5 49 -17 -4 -14 -7 -17 -9 -7 -3 12 -20 15 -91 14 -48 -1 -70 0 -49 3 36
4 37 6 37 43 0 25 -5 40 -16 44 -22 8 -51 8 -57 -1 -2 -5 -2 -2 -1 5 2 6 -2
12 -9 13 -7 0 -2 4 11 9 12 5 22 16 22 25 0 23 -9 19 -51 -24z m13 -128 c-5
-23 -7 -25 -10 -8 -2 11 -9 23 -16 27 -6 5 -3 8 10 8 18 0 20 -4 16 -27z m98
-73 c0 -5 -5 -10 -11 -10 -5 0 -7 5 -4 10 3 6 8 10 11 10 2 0 4 -4 4 -10z"/>
<path d="M4989 5148 c-11 -8 -11 -9 4 -4 9 3 17 1 17 -5 0 -6 5 -7 10 -4 6 3
10 -1 10 -10 0 -10 -5 -13 -12 -9 -10 6 -9 3 0 -8 13 -16 52 -21 52 -7 0 10
-27 37 -49 48 -11 6 -22 6 -32 -1z"/>
<path d="M5124 4959 c0 -10 4 -19 8 -19 4 0 8 6 8 14 0 8 -4 17 -8 20 -4 2 -8
-4 -8 -15z"/>
<path d="M6239 5237 c-10 -10 -19 -24 -19 -33 0 -18 -59 -124 -69 -124 -4 0
-15 -16 -24 -36 l-18 -36 73 -125 72 -125 140 7 c112 6 143 11 153 24 6 9 39
65 73 124 l62 108 -30 47 c-17 26 -49 77 -72 115 -46 76 -27 69 -213 71 -91 1
-111 -2 -128 -17z m243 -80 c43 -8 27 -18 -22 -13 -30 3 -76 0 -102 -6 -52
-13 -74 -4 -45 17 17 12 115 13 169 2z m-204 -79 c-3 -31 -5 -33 -43 -33 -30
0 -41 4 -43 18 -7 35 6 47 48 47 40 0 41 -1 38 -32z m322 -13 c0 -41 -2 -45
-25 -45 -23 0 -25 4 -25 45 0 41 2 45 25 45 23 0 25 -4 25 -45z m-146 -30 c16
-12 17 -15 4 -15 -9 0 -18 -7 -22 -15 -7 -19 -45 -19 -52 0 -4 8 -10 12 -15 9
-5 -3 -9 1 -9 10 0 28 62 35 94 11z m-170 -57 c6 -12 21 -27 33 -33 30 -13 38
-35 13 -35 -21 0 -64 51 -75 90 -6 20 -5 22 5 13 7 -6 18 -22 24 -35z m276 17
c0 -18 -75 -95 -92 -95 -6 0 -1 11 12 25 12 13 27 22 31 19 5 -3 9 -1 9 5 0 5
4 21 10 35 10 28 30 35 30 11z m-112 -123 c7 -51 -54 -72 -78 -27 -18 33 2 57
44 53 24 -2 32 -9 34 -26z"/>
<path d="M6200 5080 c0 -16 7 -20 35 -20 28 0 35 4 35 20 0 16 -7 20 -35 20
-28 0 -35 -4 -35 -20z"/>
<path d="M6560 5070 c0 -20 5 -30 15 -30 10 0 15 10 15 30 0 20 -5 30 -15 30
-10 0 -15 -10 -15 -30z"/>
<path d="M6398 5023 c6 -2 18 -2 25 0 6 3 1 5 -13 5 -14 0 -19 -2 -12 -5z"/>
<path d="M6377 4883 c-18 -17 -5 -33 28 -33 28 0 35 4 35 20 0 15 -7 20 -28
20 -16 0 -32 -3 -35 -7z"/>
<path d="M7321 4164 c0 -11 3 -14 6 -6 3 7 2 16 -1 19 -3 4 -6 -2 -5 -13z"/>
<path d="M4163 5763 c15 -2 37 -2 50 0 12 2 0 4 -28 4 -27 0 -38 -2 -22 -4z"/>
<path d="M3135 5740 c-4 -6 11 -10 37 -10 24 0 49 -5 56 -12 7 -7 12 -39 12
-75 0 -66 4 -71 33 -49 13 10 17 28 17 70 0 49 2 56 20 56 11 0 20 7 20 15 0
12 -17 15 -94 15 -53 0 -98 -4 -101 -10z"/>
<path d="M3047 5704 c-4 -4 -7 -31 -7 -61 l0 -53 95 0 96 0 -3 58 -3 57 -85 3
c-47 1 -89 0 -93 -4z"/>
<path d="M3310 5651 l0 -49 30 26 c17 15 30 36 30 49 0 19 -5 23 -30 23 -29 0
-30 -1 -30 -49z"/>
<path d="M3338 5603 c7 -3 16 -2 19 1 4 3 -2 6 -13 5 -11 0 -14 -3 -6 -6z"/>
<path d="M3648 5503 c7 -3 16 -2 19 1 4 3 -2 6 -13 5 -11 0 -14 -3 -6 -6z"/>
<path d="M3858 5250 c-66 -11 -156 -39 -198 -60 -43 -22 -126 -94 -142 -123
-10 -20 -9 -20 23 4 46 34 148 81 239 110 68 22 92 24 272 24 109 0 198 3 198
7 0 4 -25 16 -55 27 -46 17 -77 21 -173 20 -64 -1 -138 -5 -164 -9z"/>
<path d="M9216 5191 c-120 -31 -212 -57 -204 -59 14 -3 333 71 443 102 47 13
48 14 15 14 -19 0 -133 -26 -254 -57z"/>
<path d="M4296 5172 c-4 -8 0 -12 11 -12 15 0 16 -2 3 -11 -13 -9 -12 -10 2
-5 11 3 19 -2 24 -16 5 -16 8 -18 15 -7 8 12 10 12 18 0 10 -16 45 -25 35 -10
-3 5 0 9 6 9 6 0 13 -6 16 -14 3 -8 13 -12 22 -9 11 2 28 -8 45 -27 16 -17 33
-28 39 -24 7 5 9 2 5 -9 -3 -9 -3 -16 1 -14 4 1 9 -2 10 -8 7 -20 23 -33 40
-31 20 3 43 -18 40 -36 -2 -8 6 -13 18 -12 11 1 21 -5 21 -12 0 -7 -5 -10 -11
-7 -6 4 -5 0 1 -9 7 -8 10 -17 7 -21 -3 -3 2 -4 13 -1 13 3 28 -10 51 -41 18
-25 37 -43 43 -40 5 4 8 3 7 -2 -2 -4 9 -24 25 -44 29 -39 34 -54 15 -44 -7 4
-4 -1 6 -9 11 -9 27 -16 35 -16 12 0 13 -2 4 -8 -9 -6 -7 -17 11 -42 13 -19
26 -45 30 -57 4 -13 12 -23 17 -23 5 0 8 -3 7 -7 -3 -11 23 -86 33 -97 12 -13
11 -29 -1 -21 -5 3 -10 -2 -10 -11 0 -14 3 -15 12 -6 7 7 24 12 39 12 22 0 28
-6 33 -31 3 -17 6 -45 6 -61 0 -16 7 -43 17 -61 9 -18 22 -52 29 -77 l12 -45
2 40 c1 22 6 51 10 65 l8 25 1 -27 c1 -16 5 -28 10 -28 5 0 9 -34 8 -75 -1
-44 2 -75 8 -76 6 0 -1 -5 -15 -11 -24 -10 -24 -10 -5 -18 18 -8 18 -9 -5 -9
-17 -1 -21 -4 -12 -10 10 -6 10 -10 -2 -20 -18 -15 -50 -74 -35 -66 5 4 9 1 9
-4 0 -6 -7 -11 -15 -11 -18 0 -18 5 0 55 23 64 16 75 -12 20 -14 -27 -46 -73
-72 -101 -25 -28 -62 -79 -81 -113 -19 -35 -44 -68 -57 -74 -54 -29 -8 -50 91
-42 141 12 134 8 171 88 46 100 50 114 28 120 -14 4 -14 5 4 6 25 1 33 23 59
161 9 47 18 91 20 98 3 10 19 11 65 6 61 -7 61 -7 54 17 -17 55 -59 123 -104
170 -43 44 -50 58 -65 127 -43 202 -186 376 -374 458 -53 23 -65 33 -84 71
-33 66 -108 130 -176 149 -58 17 -156 14 -175 -5 -6 -6 -17 0 -32 16 -15 18
-24 23 -29 15z m294 -168 c0 -8 -19 -13 -24 -6 -3 5 1 9 9 9 8 0 15 -2 15 -3z
m138 -101 c-10 -2 -26 -2 -35 0 -10 3 -2 5 17 5 19 0 27 -2 18 -5z m385 -350
c-7 -2 -21 -2 -30 0 -10 3 -4 5 12 5 17 0 24 -2 18 -5z"/>
<path d="M3645 5065 c-22 -13 -34 -25 -27 -25 7 0 20 7 29 15 8 8 18 13 21 11
4 -2 13 2 20 10 19 21 2 17 -43 -11z"/>
<path d="M2801 5024 c0 -11 3 -14 6 -6 3 7 2 16 -1 19 -3 4 -6 -2 -5 -13z"/>
<path d="M3443 5025 c-18 -8 -33 -19 -33 -24 0 -6 -6 -8 -13 -6 -7 3 -39 -22
-72 -55 -33 -33 -64 -60 -70 -60 -16 0 -89 -126 -125 -215 -23 -60 -28 -81
-19 -89 9 -8 10 -8 5 1 -9 16 15 65 30 59 8 -3 11 3 8 20 -3 18 1 27 18 35 13
6 46 45 73 87 56 86 151 191 209 234 43 31 39 35 -11 13z"/>
<path d="M3530 4998 c-56 -37 -62 -43 -41 -46 13 -2 26 0 30 5 3 5 23 19 44
32 20 12 37 29 37 37 0 8 -1 14 -3 14 -1 0 -31 -19 -67 -42z"/>
<path d="M9270 4978 c-148 -25 -399 -79 -435 -92 l-40 -15 45 6 c60 7 302 48
419 71 52 10 97 24 99 30 4 14 -10 14 -88 0z"/>
<path d="M3414 4898 c-16 -18 -21 -26 -11 -19 9 7 17 10 17 5 0 -5 4 -4 8 2 4
5 18 18 32 27 23 16 23 17 4 17 -11 0 -33 -14 -50 -32z"/>
<path d="M3105 4813 c-49 -31 -96 -74 -90 -83 2 -3 -1 -12 -7 -20 -8 -12 -9
-11 -4 4 6 16 4 17 -9 6 -44 -37 -135 -210 -135 -258 0 -10 -12 -29 -26 -43
l-26 -24 5 -155 c5 -149 14 -199 53 -322 12 -35 21 -48 35 -48 21 0 25 -20 9
-36 -31 -31 34 -73 170 -111 118 -32 127 -31 96 10 -35 46 -85 134 -104 181
-9 23 -30 64 -47 91 -18 28 -37 65 -43 84 -17 47 -15 150 3 201 8 23 15 58 15
76 0 99 70 328 131 427 16 26 25 47 21 46 -4 0 -25 -12 -47 -26z m-115 -143
c-6 -11 -15 -20 -20 -20 -6 0 -2 9 7 20 10 11 19 20 21 20 1 0 -2 -9 -8 -20z
m-25 -60 c4 -6 -6 -10 -22 -9 -25 0 -26 1 -8 9 11 5 21 9 22 9 1 1 5 -3 8 -9z
m-1 -35 c-4 -8 -8 -15 -10 -15 -2 0 -4 7 -4 15 0 8 4 15 10 15 5 0 7 -7 4 -15z
m39 -82 c-7 -2 -21 -2 -30 0 -10 3 -4 5 12 5 17 0 24 -2 18 -5z m-74 -180 c2
-160 16 -255 56 -388 l15 -50 -20 25 c-11 14 -20 33 -20 43 0 10 -4 16 -9 12
-5 -3 -12 -1 -16 4 -3 5 2 14 11 19 15 9 15 10 -5 17 -16 5 -21 13 -18 26 3
12 0 19 -9 19 -8 0 -14 10 -14 25 0 14 -7 28 -15 31 -13 5 -13 9 -3 21 10 12
9 17 -5 24 -21 12 -22 48 -1 56 12 4 13 8 3 13 -7 5 -9 15 -4 26 4 11 8 28 9
39 1 11 7 19 14 18 6 -2 12 3 12 11 0 8 -6 17 -12 20 -10 5 -10 7 0 12 6 3 12
23 12 45 0 21 4 39 9 39 5 0 9 -48 10 -107z m31 -463 c0 -5 -7 -10 -15 -10 -8
0 -15 5 -15 10 0 6 7 10 15 10 8 0 15 -4 15 -10z"/>
<path d="M5294 4803 c5 -8 0 -13 -11 -13 -16 -1 -16 -2 -1 -10 9 -6 15 -18 14
-27 -2 -10 -1 -12 1 -5 4 11 8 11 20 0 21 -17 51 -20 59 -6 4 6 3 8 -4 4 -6
-3 -27 11 -47 31 -21 21 -34 32 -31 26z"/>
<path d="M698 4770 c-31 -4 -41 -11 -57 -42 -17 -34 -17 -38 -2 -38 12 -1 10
-4 -7 -13 -12 -7 -20 -16 -17 -19 3 -3 6 -96 7 -208 1 -238 2 -246 34 -254 30
-8 31 -18 2 -31 -18 -8 -23 -18 -23 -45 0 -19 -4 -38 -10 -42 -5 -4 6 -8 25
-9 31 -1 71 -4 108 -8 8 -1 12 -19 12 -56 l0 -55 -37 -1 c-24 -1 -29 -3 -15
-6 12 -2 22 -11 22 -19 0 -10 -15 -14 -57 -15 -32 0 -53 -3 -47 -5 7 -3 10
-23 8 -52 -3 -34 1 -56 15 -78 l19 -31 299 -2 298 -1 38 66 c20 36 37 70 37
74 0 5 47 90 105 190 103 177 120 225 88 237 -7 3 -13 13 -13 22 0 10 -9 27
-20 39 -11 12 -42 63 -68 114 -26 51 -74 139 -107 194 l-60 102 -270 -2 c-148
0 -287 -3 -307 -6z m309 -85 c19 -8 45 -15 58 -15 36 0 161 -113 171 -156 4
-16 15 -40 26 -53 28 -37 23 -87 -12 -122 l-30 -30 -242 3 c-280 3 -298 8
-319 78 -11 37 -10 44 22 106 21 42 45 73 63 83 15 9 56 37 90 62 81 62 111
70 173 44z m123 -535 l150 0 -2 -37 c-1 -38 -1 -38 -5 -5 l-4 33 -145 -2 -144
-1 -2 -36 -1 -37 -4 38 -4 37 -104 0 c-59 0 -107 -4 -110 -10 -4 -7 -12 -7
-25 0 -28 15 -30 13 -30 -26 0 -21 -4 -33 -10 -29 -5 3 -10 15 -10 26 0 10 -5
19 -12 19 -6 0 -3 7 8 15 14 11 51 14 157 15 l137 0 2 78 2 77 3 -77 4 -78
149 0z m-190 108 c0 -5 -4 -6 -10 -3 -6 4 -11 -13 -11 -42 l-2 -48 -7 50 c-8
61 -4 80 16 64 8 -6 14 -16 14 -21z m90 -77 c-6 -11 -10 -10 -19 7 -8 15 -8
22 -1 22 5 0 11 19 11 43 l2 42 7 -50 c4 -27 4 -56 0 -64z m20 -163 c0 -26 0
-51 0 -55 1 -5 -16 -11 -37 -14 -21 -3 -28 -7 -15 -8 12 0 22 -8 22 -16 0 -12
-13 -15 -55 -15 -42 0 -55 3 -55 15 0 8 10 16 23 16 13 1 8 4 -13 8 -33 6 -35
8 -38 50 -5 69 -3 71 88 69 l80 -2 0 -48z m280 -7 l0 -50 -37 -4 c-33 -3 -35
-5 -15 -12 42 -14 26 -35 -27 -35 -52 0 -79 17 -42 27 32 8 25 20 -9 15 l-30
-4 0 56 0 56 80 0 80 0 0 -49z m-283 -93 c-3 -8 -6 -5 -6 6 -1 11 2 17 5 13 3
-3 4 -12 1 -19z m20 0 c-3 -8 -6 -5 -6 6 -1 11 2 17 5 13 3 -3 4 -12 1 -19z"/>
<path d="M729 4533 c-13 -16 -12 -17 4 -4 9 7 17 15 17 17 0 8 -8 3 -21 -13z"/>
<path d="M686 4455 c-3 -9 -5 -29 -5 -43 1 -20 3 -17 9 13 8 43 7 57 -4 30z"/>
<path d="M5420 4739 c0 -5 5 -7 12 -3 8 5 9 0 6 -14 -4 -12 -2 -20 3 -16 15 9
10 44 -6 44 -8 0 -15 -5 -15 -11z"/>
<path d="M5380 4710 c0 -5 5 -10 11 -10 5 0 7 5 4 10 -3 6 -8 10 -11 10 -2 0
-4 -4 -4 -10z"/>
<path d="M5490 4701 c0 -11 24 -13 129 -8 71 3 132 3 135 0 3 -3 36 -5 73 -5
133 0 148 1 136 13 -7 7 -92 11 -242 12 -190 2 -231 0 -231 -12z"/>
<path d="M2740 4706 c3 -3 18 -7 34 -10 16 -3 25 -2 22 1 -4 4 -19 9 -34 11
-15 2 -24 1 -22 -2z"/>
<path d="M2738 4683 c7 -3 16 -2 19 1 4 3 -2 6 -13 5 -11 0 -14 -3 -6 -6z"/>
<path d="M2780 4650 c-9 -6 -10 -10 -3 -10 6 0 15 5 18 10 8 12 4 12 -15 0z"/>
<path d="M5180 4649 c0 -6 12 -47 27 -90 l27 -79 76 -1 c41 -1 85 0 97 0 13 2
23 -5 26 -16 4 -15 5 -16 6 -1 0 9 11 19 24 21 19 4 18 4 -5 6 -16 0 -28 5
-28 10 0 6 10 8 21 6 12 -2 31 0 42 6 11 6 22 7 26 3 5 -8 22 -13 58 -16 7 -1
10 -5 7 -10 -3 -4 4 -8 15 -8 12 0 21 -6 21 -12 0 -9 3 -8 10 2 7 12 11 10 19
-10 l10 -25 1 25 c0 18 3 21 9 11 7 -11 9 -11 14 0 4 12 7 11 16 -1 6 -8 11
-10 11 -5 0 6 16 10 36 10 28 0 39 -5 44 -20 l7 -20 5 20 c4 14 6 15 7 4 1
-13 13 -17 58 -18 36 -1 60 4 65 12 6 9 8 8 9 -3 0 -10 3 -8 9 5 7 17 9 17 9
3 1 -21 40 -24 60 -5 11 10 13 10 7 0 -4 -7 -2 -13 3 -13 6 0 11 10 12 23 1
21 1 21 9 -3 6 -19 8 -20 9 -6 1 12 6 16 16 12 8 -3 15 -2 15 2 0 5 18 8 41 7
52 -1 72 24 22 28 -15 1 -19 6 -15 21 4 14 2 17 -8 11 -9 -6 -11 -4 -6 4 11
17 -62 81 -83 74 -13 -4 -13 -3 -2 5 12 9 12 12 0 24 -10 9 -51 13 -146 14
-73 1 -133 -2 -133 -6 0 -3 -55 -6 -122 -5 -68 2 -128 -2 -135 -7 -7 -5 -22
-7 -34 -3 -12 4 -75 7 -140 6 -67 0 -121 4 -124 9 -8 14 -25 13 -25 -1z m130
-34 c0 -7 -30 -13 -34 -7 -3 4 4 9 15 9 10 1 19 0 19 -2z m30 -5 c0 -5 -2 -10
-4 -10 -3 0 -8 5 -11 10 -3 6 -1 10 4 10 6 0 11 -4 11 -10z m160 0 c0 -5 -2
-10 -4 -10 -3 0 -8 5 -11 10 -3 6 -1 10 4 10 6 0 11 -4 11 -10z m-197 -101
c20 2 27 0 27 -9 0 -15 -40 -12 -41 3 0 10 -2 10 -6 0 -6 -15 -43 -17 -43 -3
0 6 3 9 8 9 21 -4 32 3 33 19 0 16 1 16 8 -1 4 -10 10 -18 14 -18z m100 -2 c3
2 8 0 12 -6 4 -7 -8 -11 -34 -11 -29 0 -41 4 -41 14 0 11 7 13 29 6 16 -4 32
-6 34 -3z m232 -7 c3 -5 1 -10 -4 -10 -6 0 -11 5 -11 10 0 6 2 10 4 10 3 0 8
-4 11 -10z m75 -1 c0 -5 -9 -9 -20 -9 -11 0 -20 4 -20 8 0 4 9 8 20 9 11 1 20
-2 20 -8z m50 -1 c0 -4 -9 -8 -20 -8 -11 0 -20 4 -20 8 0 4 9 8 20 8 11 0 20
-4 20 -8z"/>
<path d="M5548 4483 c7 -3 16 -2 19 1 4 3 -2 6 -13 5 -11 0 -14 -3 -6 -6z"/>
<path d="M5571 4454 c0 -11 3 -14 6 -6 3 7 2 16 -1 19 -3 4 -6 -2 -5 -13z"/>
<path d="M5595 4460 c3 -5 8 -10 11 -10 2 0 4 5 4 10 0 6 -5 10 -11 10 -5 0
-7 -4 -4 -10z"/>
<path d="M6150 4440 c0 -6 -5 -8 -11 -4 -7 4 -10 1 -7 -6 7 -22 34 -34 54 -25
11 4 25 7 33 6 7 -1 10 2 6 9 -4 6 -13 9 -20 6 -7 -2 -22 2 -34 10 -13 10 -21
11 -21 4z"/>
<path d="M5272 4415 c8 -8 227 -9 235 -2 3 4 -49 7 -117 7 -68 0 -121 -2 -118
-5z"/>
<path d="M5540 4410 c0 -5 7 -10 15 -10 8 0 15 -5 15 -11 0 -5 -4 -8 -9 -5 -5
3 -11 -1 -15 -9 -3 -8 -16 -15 -28 -15 -19 0 -20 2 -8 10 19 12 -3 16 -62 11
-22 -2 -22 -3 -3 -11 16 -7 14 -9 -15 -9 -26 -1 -31 2 -20 9 13 8 12 10 -2 10
-10 0 -18 -4 -18 -10 0 -5 -19 -10 -42 -10 l-41 0 21 -23 c12 -13 22 -30 22
-39 0 -8 9 -27 21 -42 11 -14 18 -26 16 -26 -3 0 1 -19 8 -42 10 -37 17 -44
46 -49 18 -4 164 -8 323 -9 160 0 301 -3 312 -6 12 -3 24 -14 27 -25 6 -24 27
-25 28 -1 0 14 2 14 8 -3 5 -11 4 -22 -1 -23 -5 -2 -4 -10 3 -18 6 -8 15 -11
20 -8 5 3 9 -3 9 -12 0 -16 1 -16 14 2 14 19 15 19 22 -1 4 -11 12 -23 18 -27
7 -5 3 -8 -8 -8 -15 0 -16 -3 -6 -15 7 -8 21 -15 31 -15 11 0 19 -7 20 -17 0
-15 2 -15 9 2 8 18 9 18 9 2 1 -10 5 -16 10 -12 5 3 12 1 16 -5 3 -6 -3 -10
-16 -10 -18 0 -19 -2 -9 -15 7 -8 28 -15 46 -15 26 0 34 -4 34 -17 0 -15 2
-16 10 -3 7 11 10 12 10 2 0 -8 -9 -16 -20 -19 -16 -4 -18 -8 -9 -19 6 -8 20
-14 30 -14 11 0 19 -6 19 -12 0 -9 4 -8 10 2 9 13 10 13 10 0 0 -12 2 -12 9
-2 6 11 10 10 16 -5 7 -17 8 -17 15 2 8 18 9 17 9 -7 1 -16 -3 -28 -9 -28 -5
0 -10 -4 -10 -10 0 -5 17 -10 38 -11 20 0 30 -3 22 -7 -10 -4 -1 -10 25 -18
35 -11 36 -13 13 -13 -32 -1 -37 -17 -9 -26 25 -8 53 5 47 21 -4 9 2 14 15 14
16 0 20 4 15 18 -6 16 -5 16 8 0 16 -22 30 -23 22 -3 -3 8 -1 15 3 15 5 0 11
-5 13 -12 6 -16 66 -17 79 -1 15 17 29 17 29 0 0 -8 7 -14 15 -14 8 0 15 6 15
14 0 7 4 13 10 13 5 0 7 -6 5 -12 -5 -13 98 -20 250 -17 110 3 115 3 116 19 0
10 3 9 8 -4 7 -17 8 -17 23 -2 20 19 28 21 24 4 -1 -7 -1 -10 1 -5 3 4 10 4
15 1 7 -4 8 -2 4 4 -4 7 -3 12 3 12 5 0 12 -8 14 -17 4 -15 5 -15 6 2 1 17 3
18 11 5 6 -10 10 -11 10 -2 0 6 5 12 11 12 5 0 8 -4 5 -8 -3 -5 1 -9 9 -9 8 0
12 4 9 8 -2 4 4 10 13 12 10 3 -2 6 -27 7 -25 1 -54 4 -65 6 -11 3 -139 5
-284 5 -146 0 -275 2 -288 5 -16 4 -23 13 -23 31 0 18 -8 28 -30 36 -16 6 -30
17 -30 23 0 7 -8 15 -17 17 -14 4 -13 5 4 6 13 1 23 -6 26 -16 4 -14 5 -13 6
4 1 26 -25 43 -68 43 -24 0 -29 3 -25 18 5 16 5 16 -6 0 -6 -10 -22 -18 -35
-18 -19 0 -25 5 -24 23 0 21 1 21 9 2 7 -16 9 -17 9 -3 1 9 11 19 24 21 l22 4
-23 2 c-13 0 -21 5 -18 10 3 5 -14 12 -39 15 -35 6 -43 10 -38 24 4 10 8 12
11 4 2 -7 9 -12 15 -12 5 0 7 3 4 7 -4 3 -1 13 6 21 9 12 9 16 -1 19 -6 3 -9
10 -6 16 5 8 2 8 -7 0 -7 -7 -22 -13 -34 -12 -20 0 -20 0 0 9 17 7 17 9 3 9
-10 1 -18 7 -18 14 -1 6 -6 0 -13 -14 -10 -21 -16 -25 -32 -19 -11 5 -16 9
-12 9 11 1 -19 31 -31 31 -5 0 -9 7 -9 15 0 8 4 15 9 15 4 0 8 -4 8 -10 0 -5
7 -6 17 -3 11 4 14 3 9 -6 -6 -9 -3 -9 13 1 30 19 26 28 -13 28 -24 0 -36 5
-39 18 -4 16 -5 16 -6 0 -1 -20 -16 -24 -27 -6 -4 7 -3 8 4 4 7 -4 12 -1 12 7
0 10 -7 14 -22 11 -21 -4 -21 -4 -3 4 11 5 35 5 53 1 23 -5 32 -4 29 4 -2 7
-18 13 -35 15 -25 3 -32 8 -33 25 0 21 -1 21 -9 2 l-9 -20 -1 20 -1 20 -9 -20
c-8 -18 -9 -18 -9 -2 -1 10 8 21 20 25 17 7 18 10 7 19 -7 6 -22 13 -33 15
-11 2 -21 13 -23 25 -4 27 -22 42 -53 45 -20 2 -25 8 -24 28 l0 25 -287 3
c-190 1 -288 -1 -288 -8z m219 -33 c0 -21 -1 -21 -9 -2 -12 28 -12 37 0 30 6
-3 10 -16 9 -28z m-142 -9 c-3 -7 -5 -2 -5 12 0 14 2 19 5 13 2 -7 2 -19 0
-25z m33 28 c0 -3 -4 -8 -10 -11 -5 -3 -10 -1 -10 4 0 6 5 11 10 11 6 0 10 -2
10 -4z m60 -6 c0 -5 -7 -7 -15 -4 -8 4 -15 8 -15 10 0 2 7 4 15 4 8 0 15 -4
15 -10z m17 -22 c-3 -7 -5 -2 -5 12 0 14 2 19 5 13 2 -7 2 -19 0 -25z m78 22
c3 -5 -3 -10 -14 -10 -12 0 -21 5 -21 10 0 6 6 10 14 10 8 0 18 -4 21 -10z
m-8 -26 c-3 -3 -12 -4 -19 -1 -8 3 -5 6 6 6 11 1 17 -2 13 -5z m-410 -56 c-3
-8 -6 -5 -6 6 -1 11 2 17 5 13 3 -3 4 -12 1 -19z m793 2 c0 -11 -2 -20 -4 -20
-2 0 -6 9 -9 20 -3 11 -1 20 4 20 5 0 9 -9 9 -20z m-502 -77 c-27 -2 -69 -2
-95 0 -27 2 -5 3 47 3 52 0 74 -1 48 -3z m160 0 c-15 -2 -42 -2 -60 0 -18 2
-6 4 27 4 33 0 48 -2 33 -4z m65 0 c-7 -2 -19 -2 -25 0 -7 3 -2 5 12 5 14 0
19 -2 13 -5z m70 0 c-7 -2 -19 -2 -25 0 -7 3 -2 5 12 5 14 0 19 -2 13 -5z
m105 0 c-15 -2 -42 -2 -60 0 -18 2 -6 4 27 4 33 0 48 -2 33 -4z m65 0 c-7 -2
-19 -2 -25 0 -7 3 -2 5 12 5 14 0 19 -2 13 -5z m-457 -62 c11 9 14 8 14 -8 0
-17 -7 -19 -65 -19 -58 1 -65 3 -65 21 0 11 4 15 8 10 4 -6 24 -11 45 -12 28
-1 37 2 38 15 1 15 2 15 6 -1 4 -14 8 -16 19 -6z m387 -5 c9 1 17 -1 17 -6 0
-9 -62 -16 -107 -12 -50 5 -39 20 12 19 25 -1 45 3 45 8 0 6 3 5 8 -1 4 -6 15
-10 25 -8z m-273 -5 c12 -1 13 -3 1 -10 -21 -14 -91 -12 -91 3 0 11 19 13 90
7z m-240 -9 c0 -4 -9 -8 -20 -9 -11 -1 -20 2 -20 8 0 5 9 9 20 9 11 0 20 -4
20 -8z m828 -133 c-3 -8 -7 -3 -11 10 -4 17 -3 21 5 13 5 -5 8 -16 6 -23z m52
-129 c-13 -9 -13 -11 0 -20 9 -6 10 -10 3 -10 -6 0 -15 5 -18 10 -8 13 3 30
18 30 7 0 6 -4 -3 -10z m37 -22 c-3 -7 -5 -2 -5 12 0 14 2 19 5 13 2 -7 2 -19
0 -25z m40 0 c-3 -7 -5 -2 -5 12 0 14 2 19 5 13 2 -7 2 -19 0 -25z m130 -70
c-3 -7 -5 -2 -5 12 0 14 2 19 5 13 2 -7 2 -19 0 -25z m-120 0 c-3 -8 -6 -5 -6
6 -1 11 2 17 5 13 3 -3 4 -12 1 -19z"/>
<path d="M5330 4380 c0 -5 5 -10 11 -10 5 0 7 5 4 10 -3 6 -8 10 -11 10 -2 0
-4 -4 -4 -10z"/>
<path d="M6280 4345 c7 -8 17 -15 22 -15 5 0 3 7 -6 15 -8 8 -18 15 -22 15 -3
0 -1 -7 6 -15z"/>
<path d="M7390 4310 c0 -5 5 -10 10 -10 6 0 10 5 10 10 0 6 -4 10 -10 10 -5 0
-10 -4 -10 -10z"/>
<path d="M7510 4310 c0 -5 5 -10 10 -10 6 0 10 5 10 10 0 6 -4 10 -10 10 -5 0
-10 -4 -10 -10z"/>
<path d="M6291 4281 c-7 -5 -9 -11 -5 -14 9 -5 71 -10 109 -8 28 1 6 18 -35
26 -26 4 -31 3 -20 -4 9 -7 10 -11 3 -11 -6 0 -15 5 -18 10 -8 12 -16 12 -34
1z"/>
<path d="M6363 4203 c9 -2 23 -2 30 0 6 3 -1 5 -18 5 -16 0 -22 -2 -12 -5z"/>
<path d="M6410 4206 c0 -9 40 -13 46 -5 3 5 -6 9 -20 9 -14 0 -26 -2 -26 -4z"/>
<path d="M7521 4174 c0 -11 3 -14 6 -6 3 7 2 16 -1 19 -3 4 -6 -2 -5 -13z"/>
<path d="M6428 4128 c9 -9 15 -9 24 0 9 9 7 12 -12 12 -19 0 -21 -3 -12 -12z"/>
<path d="M5497 4090 c-4 -15 -14 -20 -41 -20 -20 0 -36 -2 -36 -4 0 -18 15
-36 31 -36 10 0 19 -5 19 -11 0 -5 -4 -7 -10 -4 -5 3 -10 0 -10 -7 0 -11 -2
-11 -9 0 -6 10 -10 10 -20 -2 -17 -21 -5 -37 25 -32 19 4 24 0 24 -15 0 -14 6
-18 23 -16 12 1 25 7 29 12 5 6 8 6 8 -2 0 -7 18 -11 48 -11 77 1 89 -1 74
-11 -10 -6 -4 -15 21 -34 19 -14 38 -23 42 -19 5 4 6 0 2 -10 -6 -17 25 -53
36 -41 4 3 7 0 7 -8 0 -16 43 -59 59 -59 6 0 11 -7 11 -16 0 -8 5 -12 10 -9 6
3 10 -1 10 -9 0 -16 39 -48 50 -41 4 3 11 -5 14 -18 7 -21 7 -21 16 -2 9 21 8
22 14 -26 0 -7 11 -15 24 -20 17 -7 22 -5 22 8 0 15 1 15 13 -1 12 -17 81 -31
71 -15 -2 4 0 10 6 14 6 3 10 -4 11 -17 1 -23 1 -23 9 2 6 20 8 21 9 6 1 -18
2 -18 14 -4 6 9 21 18 32 21 11 3 -2 5 -29 6 -71 2 -51 11 28 13 36 1 66 4 66
6 0 3 -8 11 -17 18 -11 8 -13 13 -5 14 7 0 20 -9 29 -19 9 -11 20 -18 25 -15
4 3 8 -3 9 -13 0 -12 5 -9 14 12 8 18 14 23 15 13 0 -9 10 -20 23 -24 35 -12
48 -13 41 -3 -3 5 -1 9 4 9 5 0 12 9 15 21 3 12 10 18 16 14 6 -3 19 -2 28 4
16 8 15 11 -9 21 -18 8 -24 18 -21 28 5 11 3 13 -8 7 -12 -8 -12 -6 -1 8 16
19 8 39 -13 30 -8 -3 -15 0 -15 7 0 6 -5 8 -10 5 -12 -7 -40 12 -40 26 0 5 8
9 18 9 15 1 15 2 -2 15 -11 8 -30 15 -43 15 -15 0 -23 6 -24 18 0 15 -1 14 -8
-2 -7 -19 -8 -19 -13 2 -4 15 -2 22 9 22 29 0 6 25 -28 30 -23 3 -34 11 -35
23 -1 9 3 17 8 17 6 0 5 6 -2 15 -7 8 -21 15 -31 15 -9 0 -24 7 -32 15 -8 8
-18 11 -22 7 -4 -4 -3 3 3 14 14 27 7 34 -35 34 -25 0 -33 4 -33 18 0 19 -34
24 -57 9 -8 -5 -13 -3 -13 5 0 9 -3 9 -10 -2 -6 -10 -10 -11 -10 -2 0 6 -6 12
-14 12 -8 0 -17 -6 -19 -12 -4 -10 -6 -10 -6 0 -1 6 -10 12 -21 12 -11 0 -20
-6 -20 -12 0 -10 -2 -10 -9 0 -9 15 -81 13 -81 -3 0 -7 -3 -7 -8 0 -10 15
-135 17 -144 2 -6 -9 -8 -9 -8 1 0 8 -18 12 -54 12 -45 0 -54 -3 -59 -20z
m458 -150 c3 -5 1 -10 -4 -10 -6 0 -11 5 -11 10 0 6 2 10 4 10 3 0 8 -4 11
-10z m-28 -6 c-3 -3 -12 -4 -19 -1 -8 3 -5 6 6 6 11 1 17 -2 13 -5z m103 -76
c0 -4 -9 1 -20 12 -11 11 -20 23 -20 27 0 3 9 -2 20 -12 11 -10 20 -22 20 -27z
m134 -126 c3 -5 -1 -9 -9 -9 -8 0 -15 4 -15 9 0 4 4 8 9 8 6 0 12 -4 15 -8z"/>
<path d="M6041 4094 c0 -11 3 -14 6 -6 3 7 2 16 -1 19 -3 4 -6 -2 -5 -13z"/>
<path d="M6340 4101 c0 -6 5 -13 10 -16 6 -3 10 1 10 9 0 9 -4 16 -10 16 -5 0
-10 -4 -10 -9z"/>
<path d="M7155 4090 c-3 -5 -1 -10 4 -10 6 0 11 5 11 10 0 6 -2 10 -4 10 -3 0
-8 -4 -11 -10z"/>
<path d="M6520 4066 c0 -2 7 -7 16 -10 8 -3 12 -2 9 4 -6 10 -25 14 -25 6z"/>
<path d="M6568 4058 c17 -17 42 -19 42 -2 0 9 -10 14 -27 14 -21 0 -24 -3 -15
-12z"/>
<path d="M6126 4027 c3 -10 9 -15 12 -12 3 3 0 11 -7 18 -10 9 -11 8 -5 -6z"/>
<path d="M6191 4024 c0 -11 3 -14 6 -6 3 7 2 16 -1 19 -3 4 -6 -2 -5 -13z"/>
<path d="M6576 3992 c-3 -5 0 -9 7 -9 7 0 20 -4 30 -8 13 -6 16 -3 11 9 -6 17
-39 22 -48 8z"/>
<path d="M6930 3950 c0 -5 5 -10 10 -10 6 0 10 5 10 10 0 6 -4 10 -10 10 -5 0
-10 -4 -10 -10z"/>
<path d="M7033 3948 c6 -16 -1 -18 -53 -18 -33 0 -60 4 -60 10 0 6 -4 10 -9
10 -5 0 -7 -10 -4 -22 4 -19 3 -20 -6 -8 -10 13 -11 13 -11 0 0 -13 -1 -13
-10 0 -5 8 -10 10 -10 4 0 -17 -151 -19 -161 -2 -7 10 -9 8 -9 -4 0 -18 17
-19 335 -19 206 0 204 -1 197 24 -5 18 -7 19 -10 5 -2 -11 -12 -18 -25 -17
-21 0 -21 1 -2 9 14 6 -3 9 -52 9 -60 1 -71 4 -67 16 5 11 2 13 -10 9 -9 -3
-13 -11 -10 -18 3 -6 -2 -2 -12 9 -14 17 -16 17 -11 3z"/>
<path d="M7090 3950 c0 -5 5 -10 11 -10 5 0 7 5 4 10 -3 6 -8 10 -11 10 -2 0
-4 -4 -4 -10z"/>
<path d="M648 3943 c7 -3 16 -2 19 1 4 3 -2 6 -13 5 -11 0 -14 -3 -6 -6z"/>
<path d="M5460 3906 c-5 -15 -10 -32 -10 -37 0 -16 -18 -10 -23 9 -4 16 -5 16
-6 0 -1 -12 -9 -18 -25 -18 -20 0 -56 -27 -48 -37 7 -10 0 -23 -10 -17 -7 4
-8 3 -4 -5 4 -6 2 -18 -4 -26 -10 -12 -9 -15 9 -15 12 0 31 -9 43 -20 12 -11
17 -20 10 -20 -7 0 -9 -7 -5 -17 9 -25 85 -103 94 -98 4 3 10 -2 13 -11 3 -8
10 -12 16 -9 5 3 7 0 5 -7 -3 -8 6 -24 20 -36 15 -13 25 -17 25 -9 0 6 8 -4
18 -23 14 -29 23 -35 55 -38 22 -2 37 -8 37 -16 0 -19 30 -16 31 3 0 12 3 11
9 -4 7 -17 9 -17 9 -2 1 9 5 17 11 17 5 0 7 -7 3 -15 -7 -21 20 -15 29 5 6 13
7 13 7 0 1 -9 10 -16 22 -17 14 -1 19 3 15 13 -3 8 -1 14 3 14 5 0 12 -6 14
-12 4 -10 6 -10 6 0 1 18 21 15 21 -4 0 -8 5 -12 10 -9 6 4 8 11 5 16 -4 5 49
9 127 9 73 1 167 1 208 2 51 0 75 -3 78 -12 3 -9 6 -9 13 1 6 10 35 15 101 16
114 2 113 2 106 8 -3 3 -79 7 -169 8 -135 2 -165 5 -171 17 -5 12 -7 12 -7 -2
-1 -10 -6 -18 -12 -18 -6 0 -9 6 -6 13 3 8 -1 14 -8 14 -7 0 -11 -5 -9 -12 3
-7 -19 -11 -71 -10 -70 0 -92 7 -62 18 9 4 9 8 -2 16 -12 8 -10 11 11 16 15 4
30 5 35 2 4 -3 26 -1 48 3 38 7 38 8 -20 9 -96 2 -135 11 -135 31 0 29 -11 50
-26 50 -8 0 -14 5 -14 11 0 8 -4 8 -14 0 -12 -10 -14 -8 -9 11 4 19 3 20 -7 8
-10 -13 -11 -12 -6 3 4 14 -11 36 -58 83 -35 35 -66 60 -70 57 -3 -3 -6 -1 -6
6 0 7 -20 33 -45 57 -43 43 -48 45 -120 51 -74 6 -75 5 -85 -21z m111 -113
c13 -16 12 -17 -3 -4 -17 13 -22 21 -14 21 2 0 10 -8 17 -17z m339 -193 c0
-11 -2 -20 -4 -20 -2 0 -6 9 -9 20 -3 11 -1 20 4 20 5 0 9 -9 9 -20z m-115
-28 c-3 -3 -11 0 -18 7 -9 10 -8 11 6 5 10 -3 15 -9 12 -12z m50 -50 c-3 -3
-11 0 -18 7 -9 10 -8 11 6 5 10 -3 15 -9 12 -12z m111 -30 c-11 -10 -15 4 -8
28 l7 25 3 -23 c2 -13 1 -26 -2 -30z m-76 8 c0 -5 -7 -7 -15 -4 -8 4 -15 8
-15 10 0 2 7 4 15 4 8 0 15 -4 15 -10z m50 1 c0 -10 -26 -9 -36 2 -4 4 2 7 14
7 12 0 22 -4 22 -9z"/>
<path d="M3150 3884 c0 -13 71 -140 93 -166 15 -18 36 -29 66 -33 l44 -7 -19
24 c-10 14 -38 51 -62 82 -24 32 -50 60 -58 63 -8 3 -11 9 -8 14 3 5 -3 6 -12
2 -11 -4 -15 -2 -11 4 4 6 0 14 -9 17 -20 8 -24 8 -24 0z"/>
<path d="M4182 3865 c0 -16 2 -22 5 -12 2 9 2 23 0 30 -3 6 -5 -1 -5 -18z"/>
<path d="M3338 3833 c7 -3 16 -2 19 1 4 3 -2 6 -13 5 -11 0 -14 -3 -6 -6z"/>
<path d="M4823 3822 c-12 -4 -47 -37 -78 -74 l-55 -68 40 0 c36 0 43 5 75 48
34 47 60 103 47 101 -4 -1 -17 -4 -29 -7z"/>
<path d="M3320 3813 c0 -5 22 -36 48 -68 46 -58 50 -60 99 -63 l52 -3 -67 64
c-42 41 -79 67 -99 72 -18 3 -33 3 -33 -2z"/>
<path d="M3498 3813 c12 -2 22 -9 22 -14 0 -6 -9 -7 -22 -3 l-21 6 22 -28 c12
-15 39 -43 61 -61 32 -28 46 -33 90 -33 l52 0 -74 49 c-40 27 -82 59 -92 70
-11 12 -29 20 -40 20 -20 -2 -20 -2 2 -6z"/>
<path d="M3651 3778 c19 -16 64 -45 101 -64 l68 -34 324 0 325 0 58 55 c56 53
57 54 30 55 -16 0 -38 -5 -49 -11 -12 -7 -18 -7 -14 -1 7 11 -12 11 -29 0 -6
-4 -17 -3 -25 3 -8 5 -10 9 -5 10 6 0 1 4 -10 8 -14 6 -37 0 -75 -20 -135 -68
-187 -82 -310 -83 -97 -1 -126 3 -185 23 -80 27 -98 39 -91 57 8 22 -29 35
-91 33 l-57 -2 35 -29z"/>
<path d="M4611 3743 l-63 -63 40 0 c41 0 63 19 115 100 15 24 15 25 -6 25 -14
0 -46 -24 -86 -62z"/>
<path d="M5243 3708 c-26 -12 -36 -45 -17 -52 8 -3 14 -11 14 -17 0 -7 -11 -2
-25 11 -23 22 -26 22 -43 7 -10 -10 -24 -17 -31 -17 -17 0 -8 -25 10 -26 8 -1
26 -2 42 -3 35 -1 40 -41 5 -41 -17 0 -19 -3 -10 -12 11 -11 27 -15 73 -20 19
-3 23 -38 3 -38 -11 0 -11 -4 3 -19 9 -11 22 -17 30 -14 8 3 23 -4 34 -16 18
-19 18 -21 2 -21 -36 0 11 -29 51 -32 41 -2 56 -19 37 -42 -10 -11 -4 -15 31
-20 84 -12 93 -13 111 -21 9 -4 17 -12 17 -18 0 -7 -4 -7 -12 1 -18 18 -56 14
-78 -8 -18 -18 -18 -20 -2 -29 15 -8 101 -8 243 0 37 2 46 6 41 18 -4 10 -7
11 -10 3 -5 -16 -39 -15 -45 1 -4 10 -6 10 -6 0 -1 -8 -14 -13 -33 -12 -28 0
-30 2 -13 9 19 8 19 9 -2 9 -12 1 -23 -4 -25 -11 -3 -7 -7 -6 -11 5 -5 14 0
17 34 17 24 0 38 -4 34 -10 -3 -5 -4 -10 0 -10 3 0 10 10 15 23 6 16 9 18 9 5
1 -20 31 -14 31 6 0 8 26 11 80 11 49 0 84 5 91 12 7 7 11 15 8 17 -2 2 -46 6
-97 8 -78 4 -92 2 -87 -10 5 -13 3 -13 -11 -1 -9 8 -28 12 -42 11 -13 -2 -22
0 -19 5 3 5 2 15 -4 23 -7 12 -9 9 -9 -10 0 -23 -1 -22 -18 10 -14 29 -23 35
-54 38 -27 2 -38 8 -39 20 0 14 -2 14 -8 -2 -7 -19 -8 -19 -13 2 -5 17 -2 22
12 22 10 0 21 -8 23 -17 4 -15 5 -14 6 3 1 24 -17 44 -41 44 -11 0 -15 5 -12
14 3 8 0 17 -7 22 -8 5 -10 3 -4 -6 5 -9 4 -11 -4 -6 -6 4 -9 11 -6 16 8 12
-36 51 -48 43 -6 -3 -7 -2 -4 4 9 14 -62 81 -71 67 -13 -20 -40 -12 -35 10 4
16 2 18 -5 7 -8 -11 -11 -8 -14 15 -2 23 -8 29 -28 31 -14 1 -35 -3 -47 -9z
m54 -117 c10 -17 9 -18 -18 -16 -34 2 -44 9 -34 24 10 17 39 13 52 -8z m58
-61 c3 -5 2 -10 -4 -10 -5 0 -13 5 -16 10 -3 6 -2 10 4 10 5 0 13 -4 16 -10z
m32 -26 c-3 -3 -12 -4 -19 -1 -8 3 -5 6 6 6 11 1 17 -2 13 -5z m19 -29 c4 -8
10 -12 15 -9 5 3 9 -1 9 -8 1 -7 12 -22 27 -33 14 -11 33 -28 41 -38 16 -16
17 -16 24 0 5 13 7 8 7 -14 1 -18 0 -33 -2 -33 -2 0 -36 34 -76 75 -40 41 -68
75 -61 75 6 0 13 -7 16 -15z m209 -204 c-6 -5 -25 10 -25 20 0 5 6 4 14 -3 8
-7 12 -15 11 -17z"/>
<path d="M6381 3673 c-1 -6 -4 -20 -7 -30 -5 -17 -5 -17 6 0 6 10 9 23 6 30
-3 9 -5 9 -5 0z"/>
<path d="M6406 3653 c-6 -14 -5 -15 5 -6 7 7 10 15 7 18 -3 3 -9 -2 -12 -12z"/>
<path d="M6180 3631 c0 -6 4 -13 10 -16 6 -3 7 1 4 9 -7 18 -14 21 -14 7z"/>
<path d="M4833 3612 c-21 -3 -16 -10 45 -70 37 -37 79 -76 93 -87 14 -11 25
-24 25 -30 -1 -5 9 -14 22 -20 12 -5 22 -17 22 -25 0 -13 1 -13 10 0 9 13 10
13 10 0 0 -23 47 -74 53 -58 3 8 6 5 6 -6 1 -11 58 -77 128 -148 l127 -128
446 1 c245 1 433 4 418 6 -28 4 -48 33 -23 34 8 0 45 0 83 1 39 0 70 5 74 12
5 8 8 7 8 -3 0 -11 3 -11 15 -1 12 10 15 10 16 -1 0 -8 4 -5 9 6 6 15 9 16 9
4 1 -21 31 -21 32 0 0 12 3 11 9 -4 5 -11 9 -14 9 -6 1 11 4 11 16 1 12 -10
15 -10 15 1 0 11 2 11 10 -1 8 -12 10 -12 11 5 l0 20 9 -20 9 -20 1 20 1 20 9
-20 9 -20 0 20 c1 17 3 18 11 5 9 -13 11 -13 20 0 8 13 10 12 10 -4 0 -20 0
-20 16 0 8 10 13 14 10 8 -3 -7 1 -14 9 -18 10 -3 15 1 16 12 0 14 2 14 9 -3
8 -19 9 -19 9 -1 1 20 1 20 16 0 14 -19 14 -19 15 1 0 17 2 17 10 5 6 -10 10
-11 10 -2 0 19 20 14 21 -5 0 -15 2 -15 9 2 l9 20 1 -20 1 -20 9 20 9 20 0
-20 c1 -17 3 -17 11 -5 5 8 10 10 10 4 0 -6 7 -11 15 -11 8 0 15 5 15 11 0 7
3 7 8 1 9 -13 52 -15 52 -3 0 5 9 4 20 -2 16 -9 20 -8 21 7 0 17 1 17 8 -1 7
-17 8 -17 23 -2 15 15 17 15 21 -2 4 -14 5 -14 6 3 1 14 4 16 9 8 7 -10 14
-10 35 0 50 23 41 37 -26 38 -44 1 -53 3 -33 8 35 7 37 26 4 25 -13 0 -26 5
-30 10 -5 7 -8 5 -8 -4 -1 -12 -4 -11 -15 4 -12 16 -17 17 -30 6 -12 -10 -18
-10 -30 0 -13 11 -14 10 -9 -5 5 -13 4 -16 -4 -11 -7 4 -12 1 -12 -8 0 -8 12
-16 28 -19 15 -2 -101 -5 -257 -6 -156 0 -282 1 -280 4 3 2 19 5 37 7 35 2 42
12 15 22 -15 6 -15 8 -3 16 12 8 11 10 -5 11 -11 0 -36 2 -55 3 -19 1 -176 3
-348 4 -206 1 -311 5 -307 12 3 6 -5 10 -19 10 -13 0 -27 -6 -29 -12 -4 -10
-6 -10 -6 0 -1 14 -41 17 -41 2 0 -5 -5 -10 -11 -10 -5 0 -8 4 -5 9 3 5 -20
11 -52 13 -41 4 -60 1 -67 -9 -8 -11 -20 -3 -60 37 -31 31 -58 50 -72 50 -13
0 -23 4 -23 10 0 5 7 6 17 3 12 -5 14 -3 8 7 -6 10 -4 10 10 3 10 -6 26 -8 37
-5 14 3 16 7 7 18 -6 8 -18 14 -25 14 -8 0 -14 7 -14 16 0 13 -4 12 -18 -5
l-17 -22 -30 33 -30 33 33 -29 c17 -17 33 -26 33 -20 4 32 3 40 -5 52 -4 6
-17 12 -27 12 -11 0 -19 7 -20 18 0 13 -2 12 -9 -5 -5 -13 -11 -23 -14 -23 -7
0 -66 61 -66 67 0 3 8 -1 18 -10 12 -11 22 -13 35 -6 24 14 12 29 -24 29 -16
0 -29 5 -29 13 0 8 -4 7 -10 -3 -6 -10 -10 -11 -10 -2 0 6 -6 12 -14 12 -8 0
-18 5 -22 12 -5 8 -2 9 9 5 11 -4 20 1 27 13 10 18 7 20 -33 20 -34 0 -49 6
-67 25 -22 23 -30 25 -104 23 -45 -1 -91 -3 -103 -6z m1237 -426 c0 -3 -4 -8
-10 -11 -5 -3 -10 -1 -10 4 0 6 5 11 10 11 6 0 10 -2 10 -4z m220 -6 c0 -5 -2
-10 -4 -10 -3 0 -8 5 -11 10 -3 6 -1 10 4 10 6 0 11 -4 11 -10z m70 -1 c0 -6
-7 -9 -15 -5 -10 4 -15 -1 -15 -14 0 -13 -6 -20 -17 -19 -11 0 -13 3 -5 6 6 2
12 13 12 24 0 12 7 19 20 19 11 0 20 -5 20 -11z m590 -29 c0 -5 -10 -10 -22
-9 -22 0 -22 1 -3 9 11 5 21 9 23 9 1 1 2 -3 2 -9z m-957 -7 c-7 -2 -19 -2
-25 0 -7 3 -2 5 12 5 14 0 19 -2 13 -5z m190 0 c-7 -2 -19 -2 -25 0 -7 3 -2 5
12 5 14 0 19 -2 13 -5z m7 -69 c0 -2 -11 -4 -25 -4 -14 0 -25 4 -25 9 0 4 11
6 25 3 14 -2 25 -6 25 -8z m-492 -1 c-10 -2 -28 -2 -40 0 -13 2 -5 4 17 4 22
1 32 -1 23 -4z m55 0 c-7 -2 -19 -2 -25 0 -7 3 -2 5 12 5 14 0 19 -2 13 -5z
m270 0 c-7 -2 -19 -2 -25 0 -7 3 -2 5 12 5 14 0 19 -2 13 -5z m100 0 c-7 -2
-19 -2 -25 0 -7 3 -2 5 12 5 14 0 19 -2 13 -5z"/>
<path d="M6130 3609 c0 -5 5 -7 10 -4 6 3 10 8 10 11 0 2 -4 4 -10 4 -5 0 -10
-5 -10 -11z"/>
<path d="M6080 3521 c0 -6 4 -13 10 -16 6 -3 7 1 4 9 -7 18 -14 21 -14 7z"/>
<path d="M6791 3515 c-1 -17 -3 -17 -11 -5 -6 10 -10 11 -10 3 0 -7 -5 -13
-11 -13 -5 0 -7 6 -3 13 6 10 4 10 -7 0 -15 -15 -33 -18 -25 -5 3 5 -1 9 -9 9
-8 0 -12 -4 -9 -9 3 -4 -10 -8 -29 -8 -22 0 -37 -6 -41 -16 -3 -9 -2 -12 5 -9
6 4 13 -2 16 -14 3 -12 10 -21 15 -21 6 0 8 7 4 15 -3 9 0 15 9 15 7 0 16 -8
18 -17 4 -15 5 -16 6 -2 2 24 81 25 82 1 0 -14 2 -13 8 3 l8 20 5 -20 c5 -16
6 -17 7 -2 0 9 5 17 11 17 5 0 7 -7 3 -16 -4 -11 0 -15 13 -14 43 5 134 -1
134 -7 0 -5 -87 -9 -193 -10 -105 -1 -195 -2 -199 -3 -15 0 -8 -20 7 -20 8 0
15 -6 15 -12 0 -10 2 -10 8 -1 12 18 80 13 85 -6 4 -13 5 -13 6 2 1 15 9 17
44 16 23 -2 45 -7 49 -13 5 -7 8 -7 8 2 0 19 38 14 43 -5 4 -17 5 -17 6 0 0 9
6 17 11 17 6 0 10 -8 11 -17 0 -15 2 -15 9 2 l9 20 0 -20 c1 -14 8 -20 26 -20
14 0 25 5 25 10 0 6 5 3 10 -5 7 -11 10 -11 10 -2 0 7 5 10 10 7 27 -17 2 -25
-80 -25 -65 0 -90 3 -90 13 0 9 -3 8 -9 -2 -7 -11 -88 -13 -436 -15 -276 -1
-430 -5 -432 -11 -2 -7 187 -10 554 -10 436 0 557 -3 561 -12 6 -19 78 -17 86
2 3 8 16 14 28 14 l23 -2 -22 -4 c-31 -6 -29 -19 2 -19 14 0 25 4 25 9 0 6 8
16 18 23 15 12 12 14 -28 15 -25 1 -55 0 -68 -1 -19 -1 -23 3 -20 22 3 21 8
23 60 24 112 3 120 29 9 29 -39 0 -71 3 -71 8 0 4 9 7 20 7 11 0 20 6 20 13 0
7 3 8 8 2 11 -15 44 -15 39 -1 -4 9 6 13 28 14 24 1 35 -4 38 -16 4 -16 5 -16
6 1 1 11 9 17 24 17 13 0 32 7 43 15 18 14 18 14 -6 16 -14 1 -33 0 -44 -1
-10 -1 -23 4 -27 12 -7 10 -9 10 -9 1 0 -16 -47 -17 -52 -2 -3 8 -49 12 -138
14 -117 2 -136 0 -142 -14 -6 -14 -7 -14 -7 1 -1 11 -6 15 -16 12 -8 -4 -12
-11 -9 -18 3 -6 -2 -2 -10 8 -15 19 -16 19 -16 1 0 -18 -1 -18 -15 1 -14 19
-14 19 -15 -1 l-1 -20 -9 20 -9 20 0 -20z m239 -83 c0 -4 -9 -8 -20 -8 -11 0
-20 4 -20 8 0 4 9 8 20 8 11 0 20 -4 20 -8z m50 0 c0 -4 -9 -8 -20 -8 -11 0
-20 4 -20 8 0 4 9 8 20 8 11 0 20 -4 20 -8z m-3 -69 c-3 -10 -5 -4 -5 12 0 17
2 24 5 18 2 -7 2 -21 0 -30z m-47 -3 c0 -5 -7 -10 -15 -10 -8 0 -15 5 -15 10
0 6 7 10 15 10 8 0 15 -4 15 -10z m30 0 c0 -5 -4 -10 -10 -10 -5 0 -10 5 -10
10 0 6 5 10 10 10 6 0 10 -4 10 -10z"/>
<path d="M5206 3453 c5 -5 12 -12 16 -18 4 -6 8 -2 8 8 0 9 -7 17 -17 17 -9 0
-12 -3 -7 -7z"/>
<path d="M6720 3449 c0 -5 5 -7 10 -4 6 3 10 8 10 11 0 2 -4 4 -10 4 -5 0 -10
-5 -10 -11z"/>
<path d="M5760 3309 c0 -5 9 -9 20 -9 11 0 20 2 20 4 0 2 -9 6 -20 9 -11 3
-20 1 -20 -4z"/>
<path d="M5381 3276 c27 -30 34 -33 50 -23 22 13 11 29 -23 34 -13 2 -24 8
-26 13 -2 6 -10 10 -18 10 -9 0 -3 -12 17 -34z"/>
<path d="M5818 3303 c7 -3 16 -2 19 1 4 3 -2 6 -13 5 -11 0 -14 -3 -6 -6z"/>
<path d="M6990 3293 c0 -10 4 -14 8 -8 4 6 11 13 16 18 5 4 2 7 -7 7 -10 0
-17 -8 -17 -17z"/>
<path d="M5431 3234 c0 -11 3 -14 6 -6 3 7 2 16 -1 19 -3 4 -6 -2 -5 -13z"/>
<path d="M6420 3165 c0 -17 58 -17 67 -1 3 6 3 8 -1 4 -4 -3 -21 -2 -37 2 -22
7 -29 5 -29 -5z"/>
<path d="M6521 3164 c0 -11 3 -14 6 -6 3 7 2 16 -1 19 -3 4 -6 -2 -5 -13z"/>
<path d="M6660 3165 c0 -8 7 -15 16 -15 14 0 14 3 4 15 -7 8 -14 15 -16 15 -2
0 -4 -7 -4 -15z"/>
<path d="M6701 3164 c0 -11 3 -14 6 -6 3 7 2 16 -1 19 -3 4 -6 -2 -5 -13z"/>
<path d="M6790 3166 c0 -9 5 -16 10 -16 6 0 10 4 10 9 0 6 -4 13 -10 16 -5 3
-10 -1 -10 -9z"/>
<path d="M6820 3165 c0 -8 5 -15 10 -15 6 0 10 7 10 15 0 8 -4 15 -10 15 -5 0
-10 -7 -10 -15z"/>
<path d="M7050 3166 c0 -9 5 -16 10 -16 6 0 10 4 10 9 0 6 -4 13 -10 16 -5 3
-10 -1 -10 -9z"/>
<path d="M2565 3158 c-12 -7 -118 -185 -142 -240 -10 -24 -9 -27 13 -32 14 -4
48 0 76 9 28 8 80 15 115 15 l63 0 0 49 c0 35 4 51 16 55 9 3 64 6 124 6 l108
0 7 -36 c5 -31 9 -35 28 -30 12 3 29 6 37 6 43 1 43 16 -1 105 -24 48 -48 89
-54 91 -22 7 -377 9 -390 2z"/>
<path d="M6630 3160 c0 -5 5 -10 10 -10 6 0 10 5 10 10 0 6 -4 10 -10 10 -5 0
-10 -4 -10 -10z"/>
<path d="M2717 2993 c-4 -3 -6 -27 -5 -52 1 -44 2 -44 5 -8 l4 37 94 0 c81 0
94 -2 98 -17 4 -17 4 -17 12 0 17 40 1 47 -103 47 -54 0 -102 -3 -105 -7z"/>
<path d="M2853 2953 c9 -2 25 -2 35 0 9 3 1 5 -18 5 -19 0 -27 -2 -17 -5z"/>
<path d="M4350 2899 c0 -5 14 -18 31 -27 17 -9 72 -44 122 -76 79 -52 98 -61
149 -64 l58 -4 0 -34 c0 -30 3 -33 33 -36 l32 -3 0 -115 0 -115 -64 -3 c-43
-2 -68 -8 -75 -18 -9 -12 -34 -14 -126 -12 l-115 3 2 28 c2 26 0 27 -42 27
-25 0 -45 5 -48 13 -4 10 -6 10 -6 0 -1 -9 -20 -13 -61 -13 l-60 0 0 80 0 80
69 0 69 0 4 60 3 60 -50 22 c-27 12 -54 23 -59 23 -4 0 -37 -49 -72 -110 -56
-97 -61 -112 -48 -126 8 -8 14 -20 14 -25 0 -6 12 -26 26 -45 14 -19 43 -70
65 -114 63 -127 51 -120 161 -91 149 39 172 41 213 16 19 -12 40 -30 45 -40 6
-12 17 -16 34 -13 20 4 38 27 81 104 32 59 55 111 55 129 0 17 4 30 10 30 5 0
7 -8 4 -17 -3 -10 10 7 30 37 40 60 43 72 21 90 -8 7 -15 18 -15 25 0 7 -14
30 -30 51 -17 21 -46 70 -65 109 -32 69 -35 71 -82 83 -33 8 -60 9 -88 2 -51
-12 -78 -13 -71 -1 3 5 -20 12 -51 16 -31 4 -67 11 -80 16 -15 5 -23 5 -23 -2z"/>
<path d="M3732 2870 c-61 -17 -217 -20 -241 -6 -5 4 -78 -6 -161 -21 l-152
-27 -59 -100 c-32 -55 -59 -103 -59 -106 0 -6 97 -40 113 -40 4 0 4 7 0 17 -4
9 8 42 28 80 l34 63 77 0 76 0 37 -65 36 -65 -23 -39 c-12 -22 -20 -42 -18
-45 3 -2 43 -9 90 -16 77 -10 204 -32 434 -76 44 -8 92 -22 107 -30 15 -7 64
-51 108 -96 44 -46 83 -79 87 -75 8 7 -40 105 -60 122 -18 15 -66 102 -66 118
0 8 -9 22 -20 32 -11 10 -20 25 -20 33 0 8 -6 20 -14 26 -12 9 -5 27 44 111
33 55 59 103 60 107 0 4 -28 16 -62 26 -51 16 -83 19 -164 14 l-102 -5 -17 37
c-10 20 -20 38 -24 39 -3 2 -34 -4 -69 -13z"/>
<path d="M2945 2787 c-4 -23 -5 -62 -3 -87 3 -41 6 -47 42 -64 l39 -19 18 24
c10 13 36 58 58 99 l40 76 -67 -1 c-37 0 -79 3 -94 7 -25 6 -27 4 -33 -35z"/>
<path d="M2793 2803 c4 -3 35 -6 70 -6 51 1 56 0 27 -7 -33 -7 -33 -7 -7 -9
38 -1 24 -21 -14 -21 -18 0 -28 -4 -24 -10 3 -5 18 -10 32 -10 17 0 24 -4 20
-14 -3 -8 3 -22 14 -32 19 -17 19 -16 19 49 l0 67 -72 0 c-39 0 -68 -3 -65 -7z"/>
<path d="M1950 2783 c-35 -23 -160 -150 -160 -163 0 -6 11 -8 28 -4 72 16 348
96 355 103 5 5 -19 11 -52 15 -34 4 -61 11 -61 16 0 6 -7 10 -15 10 -8 0 -15
4 -15 8 0 7 -45 34 -53 31 -1 0 -13 -7 -27 -16z"/>
<path d="M2672 2770 c0 -14 2 -19 5 -12 2 6 2 18 0 25 -3 6 -5 1 -5 -13z"/>
<path d="M2820 2780 c0 -5 7 -7 15 -4 8 4 15 8 15 10 0 2 -7 4 -15 4 -8 0 -15
-4 -15 -10z"/>
<path d="M4340 2665 l0 -55 40 0 39 0 3 -57 3 -58 103 -3 c116 -3 122 1 106
67 -7 27 -15 37 -34 41 -14 3 -68 27 -120 54 -150 76 -140 75 -140 11z"/>
<path d="M4640 2712 c0 -14 48 -33 55 -22 4 6 3 15 0 20 -7 12 -55 13 -55 2z"/>
<path d="M2822 2645 c4 -7 -15 -10 -53 -10 -32 1 -59 -2 -59 -7 0 -4 37 -8 83
-7 45 0 75 3 67 6 -8 3 -21 11 -29 17 -9 6 -12 7 -9 1z"/>
<path d="M4748 2585 c5 -50 0 -53 -46 -29 -18 8 -36 13 -42 9 -5 -3 -10 -31
-10 -61 l0 -54 55 0 55 0 0 90 c0 50 -4 90 -9 90 -5 0 -6 -20 -3 -45z"/>
<path d="M2940 2595 c-10 -12 -37 -15 -126 -15 -65 0 -115 4 -119 10 -8 12
-143 11 -151 -1 -3 -5 -14 -9 -25 -9 -25 0 -24 -3 8 -61 l26 -49 178 0 c98 0
188 4 201 9 13 5 36 31 51 58 l27 50 -26 11 c-31 15 -29 15 -44 -3z"/>
<path d="M4243 2593 l-53 -4 0 -55 0 -54 110 0 110 0 0 55 0 55 -44 0 c-24 0
-50 1 -58 3 -7 2 -37 2 -65 0z"/>
<path d="M2073 2556 c-25 -8 -32 -15 -31 -33 2 -13 6 -23 11 -23 5 0 6 7 3 16
-6 15 -4 15 10 3 35 -29 94 -14 94 23 0 18 -6 23 -28 24 -15 0 -42 -4 -59 -10z
m54 -12 c-10 -10 -47 -12 -47 -2 0 5 7 8 15 4 8 -3 15 -1 15 5 0 6 5 7 11 4 6
-4 8 -9 6 -11z"/>
<path d="M2170 2550 c0 -5 7 -7 15 -4 8 4 15 8 15 10 0 2 -7 4 -15 4 -8 0 -15
-4 -15 -10z"/>
<path d="M4420 2460 c0 -15 7 -20 29 -20 20 0 30 6 34 20 4 17 0 20 -29 20
-27 0 -34 -4 -34 -20z"/>
<path d="M4508 2473 c7 -3 16 -2 19 1 4 3 -2 6 -13 5 -11 0 -14 -3 -6 -6z"/>
<path d="M4547 2460 c4 -16 14 -20 49 -20 37 0 44 3 44 20 0 17 -7 20 -49 20
-44 0 -49 -2 -44 -20z"/>
<path d="M1241 2441 c-8 -6 -9 -11 -3 -15 6 -3 14 -1 17 5 9 14 2 20 -14 10z"/>
<path d="M1289 2429 c-8 -17 -8 -20 2 -17 7 2 13 12 15 21 3 23 -3 21 -17 -4z"/>
<path d="M1341 2434 c0 -11 3 -14 6 -6 3 7 2 16 -1 19 -3 4 -6 -2 -5 -13z"/>
<path d="M1170 2430 c0 -5 7 -10 16 -10 8 0 12 5 9 10 -3 6 -10 10 -16 10 -5
0 -9 -4 -9 -10z"/>
<path d="M3970 2380 c0 -11 4 -20 9 -20 5 0 7 9 4 20 -3 11 -7 20 -9 20 -2 0
-4 -9 -4 -20z"/>
<path d="M4000 2380 c0 -5 5 -10 11 -10 5 0 7 5 4 10 -3 6 -8 10 -11 10 -2 0
-4 -4 -4 -10z"/>
<path d="M4371 2093 c50 -64 93 -113 101 -113 15 0 9 31 -12 60 -19 27 -78 70
-95 70 -4 0 -1 -8 6 -17z"/>
<path d="M5994 1845 c-10 -25 17 -115 42 -143 l23 -27 1 27 c0 35 -21 130 -33
146 -13 16 -26 15 -33 -3z"/>
<path d="M6110 1539 c0 -29 45 -248 93 -449 21 -86 25 -95 47 -98 34 -3 57 12
43 30 -12 15 -53 141 -78 238 -21 84 -95 310 -101 310 -2 0 -4 -14 -4 -31z"/>
<path d="M4906 1423 c-11 -11 -6 -23 9 -23 8 0 15 4 15 9 0 13 -16 22 -24 14z"/>
<path d="M5175 1420 c-3 -5 -1 -10 4 -10 6 0 11 5 11 10 0 6 -2 10 -4 10 -3 0
-8 -4 -11 -10z"/>
<path d="M4800 1400 c0 -5 5 -10 10 -10 6 0 10 5 10 10 0 6 -4 10 -10 10 -5 0
-10 -4 -10 -10z"/>
<path d="M5270 1380 c0 -5 5 -10 10 -10 6 0 10 5 10 10 0 6 -4 10 -10 10 -5 0
-10 -4 -10 -10z"/>
<path d="M5166 1351 c-14 -5 -16 -10 -7 -15 15 -9 41 -1 41 14 0 11 -7 12 -34
1z"/>
<path d="M4884 1341 c-2 -2 -2 -7 0 -10 6 -9 186 -1 186 8 0 8 -178 10 -186 2z"/>
<path d="M5830 1320 c0 -5 5 -10 10 -10 6 0 10 5 10 10 0 6 -4 10 -10 10 -5 0
-10 -4 -10 -10z"/>
<path d="M5260 1308 c0 -5 60 -7 133 -6 144 1 131 6 -31 10 -56 2 -102 0 -102
-4z"/>
<path d="M5545 1310 c3 -5 15 -10 26 -10 10 0 19 5 19 10 0 6 -12 10 -26 10
-14 0 -23 -4 -19 -10z"/>
<path d="M5185 1280 c-4 -7 -62 -10 -158 -10 -84 1 -153 -1 -154 -5 -2 -4 70
-7 160 -7 137 1 163 4 165 17 4 17 -4 20 -13 5z"/>
<path d="M5753 1263 c-57 -2 -103 -7 -103 -11 0 -4 49 -7 110 -7 81 0 110 3
110 13 0 6 -3 11 -7 10 -5 -1 -54 -4 -110 -5z"/>
<path d="M5583 1249 c-6 -6 -67 -9 -167 -7 -117 2 -156 0 -156 -9 0 -9 42 -12
170 -10 154 2 170 4 170 20 0 20 -2 21 -17 6z"/>
<path d="M5180 1210 c0 -7 -55 -10 -165 -8 -141 3 -165 1 -165 -12 0 -13 25
-15 175 -12 166 3 175 4 175 22 0 11 -4 20 -10 20 -5 0 -10 -5 -10 -10z"/>
<path d="M5656 1202 c-3 -6 -4 -16 -1 -24 5 -11 20 -13 83 -6 42 5 92 6 110 3
22 -4 32 -2 32 7 0 10 -23 12 -101 10 -72 -3 -104 0 -109 8 -5 8 -10 9 -14 2z"/>
<path d="M5586 1175 c-4 -12 -32 -15 -161 -15 -97 0 -155 4 -155 10 0 6 -4 10
-10 10 -5 0 -10 -8 -10 -17 0 -17 15 -18 180 -18 180 0 180 0 180 23 0 25 -15
30 -24 7z"/>
<path d="M8471 1123 c-6 -20 -8 -39 -6 -42 3 -2 5 1 5 7 0 6 8 13 18 16 10 4
17 16 17 31 0 38 -23 30 -34 -12z"/>
<path d="M5180 1135 c0 -13 -25 -15 -165 -15 -125 0 -165 3 -165 13 0 6 -5 4
-11 -6 -5 -9 -8 -20 -6 -25 3 -4 86 -6 186 -4 l181 3 0 24 c0 14 -4 25 -10 25
-5 0 -10 -7 -10 -15z"/>
<path d="M5662 1119 c3 -19 10 -21 121 -22 72 -1 117 2 117 8 0 16 -20 42 -20
28 0 -10 -27 -13 -100 -13 -60 0 -100 4 -100 10 0 6 -5 10 -11 10 -6 0 -9 -9
-7 -21z"/>
<path d="M5600 1101 c0 -20 -5 -21 -169 -21 -153 0 -170 2 -174 18 -3 10 -5 6
-6 -10 l-1 -28 185 0 185 0 0 24 c0 14 -4 28 -10 31 -5 3 -10 -3 -10 -14z"/>
<path d="M4828 1064 c-5 -4 -8 -17 -8 -28 0 -21 3 -21 177 -18 98 1 184 5 191
7 14 5 17 45 3 45 -5 0 -11 -9 -14 -20 -5 -19 -14 -20 -170 -20 -160 0 -166 1
-169 21 -2 11 -6 17 -10 13z"/>
<path d="M5890 1056 c0 -13 -16 -16 -98 -16 -65 0 -102 4 -111 13 -10 10 -12
7 -9 -13 1 -14 6 -24 11 -22 4 1 57 2 117 2 102 0 110 1 110 19 0 11 -4 23
-10 26 -5 3 -10 -1 -10 -9z"/>
<path d="M4745 1030 c-9 -41 1 -50 16 -16 9 19 9 30 2 37 -8 8 -13 2 -18 -21z"/>
<path d="M5251 988 c0 -29 4 -48 12 -51 14 -5 336 3 355 8 15 5 16 71 1 81 -7
4 -10 -6 -7 -32 l3 -39 -175 0 -175 0 -6 40 -6 40 -2 -47z"/>
<path d="M4770 959 c0 -17 4 -28 10 -24 6 3 10 17 10 31 0 13 -4 24 -10 24 -5
0 -10 -14 -10 -31z"/>
<path d="M5168 968 c-3 -23 -4 -23 -176 -23 -94 0 -172 -3 -172 -7 0 -9 331
-11 354 -2 9 3 16 17 16 30 0 30 -18 32 -22 2z"/>
<path d="M8425 980 c-3 -5 1 -10 9 -10 9 0 16 5 16 10 0 6 -4 10 -9 10 -6 0
-13 -4 -16 -10z"/>
<path d="M5680 968 c0 -9 5 -20 11 -23 17 -11 20 0 4 21 -13 17 -14 17 -15 2z"/>
<path d="M5910 968 c0 -9 -6 -19 -12 -21 -8 -3 -7 -6 4 -6 22 -1 29 11 17 29
-7 13 -9 12 -9 -2z"/>
<path d="M7136 912 c-3 -5 1 -9 9 -9 8 0 15 4 15 9 0 4 -4 8 -9 8 -6 0 -12 -4
-15 -8z"/>
<path d="M8267 889 c7 -7 15 -10 18 -7 3 3 -2 9 -12 12 -14 6 -15 5 -6 -5z"/>
<path d="M7176 869 c10 -12 18 -24 16 -27 -2 -4 1 -8 7 -10 16 -5 13 14 -4 28
-8 7 -12 16 -9 21 3 5 -3 9 -12 9 -16 0 -15 -2 2 -21z"/>
<path d="M8316 854 c-6 -14 28 -29 44 -19 17 11 11 22 -14 27 -15 3 -27 0 -30
-8z"/>
<path d="M7248 798 c2 -11 8 -16 11 -11 3 4 10 11 14 14 4 4 -1 9 -11 11 -15
4 -18 1 -14 -14z"/>
<path d="M8355 810 c3 -5 8 -10 11 -10 2 0 4 5 4 10 0 6 -5 10 -11 10 -5 0 -7
-4 -4 -10z"/>
<path d="M8390 816 c0 -2 8 -10 18 -17 15 -13 16 -12 3 4 -13 16 -21 21 -21
13z"/>
<path d="M7327 777 c-3 -9 1 -18 10 -21 22 -9 25 -3 10 19 -12 15 -15 16 -20
2z"/>
<path d="M8502 623 c-9 -3 -4 -10 14 -19 19 -10 31 -11 38 -4 19 19 -20 36
-52 23z"/>
<path d="M7450 420 c0 -5 5 -10 10 -10 6 0 10 5 10 10 0 6 -4 10 -10 10 -5 0
-10 -4 -10 -10z"/>
<path d="M8751 194 c0 -11 3 -14 6 -6 3 7 2 16 -1 19 -3 4 -6 -2 -5 -13z"/>
<path d="M3868 43 c6 -2 18 -2 25 0 6 3 1 5 -13 5 -14 0 -19 -2 -12 -5z"/>
</g>
</svg>
